<?xml version="1.0" encoding="UTF-8"?>
<svg xmlns="http://www.w3.org/2000/svg" xmlns:xlink="http://www.w3.org/1999/xlink" width="446px" height="190px" viewBox="0 0 460 190" version="1.1">
<g id="surface1">
<path style=" stroke:none;fill-rule:nonzero;fill:rgb(0%,0%,0%);fill-opacity:1;" d="M 183.382812 124.3125 C 177.582031 124.3125 172.511719 122.992188 168.175781 120.351562 C 163.839844 117.710938 160.46875 114.046875 158.066406 109.351562 C 155.664062 104.597656 154.460938 99.082031 154.460938 92.804688 C 154.460938 86.46875 155.691406 80.894531 158.15625 76.085938 C 160.675781 71.214844 164.21875 67.429688 168.789062 64.730469 C 173.421875 61.972656 178.898438 60.59375 185.226562 60.59375 C 192.4375 60.59375 198.414062 62.328125 203.160156 65.789062 C 207.90625 69.25 210.984375 74.03125 212.390625 80.132812 L 199.820312 80.132812 C 198.882812 77.257812 197.183594 75.027344 194.722656 73.445312 C 192.261719 71.800781 189.097656 70.980469 185.226562 70.980469 C 179.074219 70.980469 174.328125 72.945312 170.988281 76.875 C 167.648438 80.75 165.976562 86.089844 165.976562 92.894531 C 165.976562 99.699219 167.617188 104.980469 170.898438 108.734375 C 174.242188 112.429688 178.753906 114.28125 184.4375 114.28125 C 190.003906 114.28125 194.195312 112.785156 197.007812 109.792969 C 199.878906 106.742188 201.609375 102.75 202.195312 97.824219 L 186.636719 97.824219 L 186.636719 89.375 L 213.535156 89.375 L 213.535156 123.257812 L 203.160156 123.257812 L 202.28125 115.160156 C 200.289062 118.09375 197.800781 120.351562 194.808594 121.9375 C 191.820312 123.519531 188.011719 124.3125 183.382812 124.3125 Z M 183.382812 124.3125 "/>
<path style=" stroke:none;fill-rule:nonzero;fill:rgb(0%,0%,0%);fill-opacity:1;" d="M 219.8125 123.257812 L 219.8125 59.890625 L 231.0625 59.890625 L 231.0625 123.257812 Z M 219.8125 123.257812 "/>
<path style=" stroke:none;fill-rule:nonzero;fill:rgb(0%,0%,0%);fill-opacity:1;" d="M 259.085938 124.3125 C 254.867188 124.3125 251.058594 123.34375 247.660156 121.410156 C 244.320312 119.472656 241.652344 116.800781 239.660156 113.398438 C 237.726562 109.9375 236.757812 105.949219 236.757812 101.429688 C 236.757812 96.914062 237.757812 92.953125 239.75 89.550781 C 241.742188 86.089844 244.40625 83.390625 247.75 81.453125 C 251.148438 79.515625 254.957031 78.550781 259.175781 78.550781 C 263.335938 78.550781 267.085938 79.515625 270.425781 81.453125 C 273.824219 83.390625 276.492188 86.089844 278.425781 89.550781 C 280.417969 92.953125 281.414062 96.914062 281.414062 101.429688 C 281.414062 105.949219 280.417969 109.9375 278.425781 113.398438 C 276.492188 116.800781 273.824219 119.472656 270.425781 121.410156 C 267.027344 123.34375 263.246094 124.3125 259.085938 124.3125 Z M 259.085938 114.542969 C 262.015625 114.542969 264.566406 113.457031 266.734375 111.289062 C 268.902344 109.058594 269.988281 105.773438 269.988281 101.429688 C 269.988281 97.089844 268.902344 93.832031 266.734375 91.660156 C 264.566406 89.433594 262.046875 88.316406 259.175781 88.316406 C 256.1875 88.316406 253.609375 89.433594 251.441406 91.660156 C 249.332031 93.832031 248.273438 97.089844 248.273438 101.429688 C 248.273438 105.773438 249.332031 109.058594 251.441406 111.289062 C 253.609375 113.457031 256.15625 114.542969 259.085938 114.542969 Z M 259.085938 114.542969 "/>
<path style=" stroke:none;fill-rule:nonzero;fill:rgb(0%,0%,0%);fill-opacity:1;" d="M 305.101562 124.3125 C 301.230469 124.3125 297.832031 123.695312 294.902344 122.464844 C 291.972656 121.171875 289.628906 119.414062 287.871094 117.183594 C 286.113281 114.953125 285.058594 112.371094 284.707031 109.4375 L 296.046875 109.4375 C 296.398438 111.140625 297.335938 112.609375 298.859375 113.839844 C 300.441406 115.011719 302.464844 115.597656 304.925781 115.597656 C 307.386719 115.597656 309.171875 115.101562 310.285156 114.105469 C 311.457031 113.105469 312.046875 111.960938 312.046875 110.671875 C 312.046875 108.792969 311.222656 107.53125 309.582031 106.886719 C 307.941406 106.183594 305.65625 105.507812 302.726562 104.863281 C 300.851562 104.453125 298.945312 103.953125 297.011719 103.367188 C 295.078125 102.78125 293.292969 102.046875 291.652344 101.167969 C 290.066406 100.226562 288.777344 99.054688 287.785156 97.644531 C 286.789062 96.179688 286.289062 94.390625 286.289062 92.277344 C 286.289062 88.40625 287.8125 85.148438 290.859375 82.507812 C 293.964844 79.867188 298.300781 78.550781 303.871094 78.550781 C 309.027344 78.550781 313.128906 79.75 316.175781 82.15625 C 319.28125 84.5625 321.128906 87.878906 321.714844 92.101562 L 311.078125 92.101562 C 310.433594 88.875 308 87.261719 303.78125 87.261719 C 301.671875 87.261719 300.03125 87.671875 298.859375 88.492188 C 297.746094 89.316406 297.1875 90.34375 297.1875 91.574219 C 297.1875 92.863281 298.039062 93.890625 299.738281 94.652344 C 301.4375 95.417969 303.695312 96.121094 306.507812 96.765625 C 309.554688 97.46875 312.339844 98.261719 314.859375 99.144531 C 317.4375 99.964844 319.488281 101.226562 321.011719 102.925781 C 322.535156 104.570312 323.296875 106.945312 323.296875 110.054688 C 323.355469 112.753906 322.652344 115.191406 321.1875 117.359375 C 319.722656 119.53125 317.613281 121.230469 314.859375 122.464844 C 312.101562 123.695312 308.851562 124.3125 305.101562 124.3125 Z M 305.101562 124.3125 "/>
<path style=" stroke:none;fill-rule:nonzero;fill:rgb(0%,0%,0%);fill-opacity:1;" d="M 346.886719 124.3125 C 343.019531 124.3125 339.621094 123.695312 336.691406 122.464844 C 333.761719 121.171875 331.417969 119.414062 329.660156 117.183594 C 327.902344 114.953125 326.847656 112.371094 326.496094 109.4375 L 337.835938 109.4375 C 338.1875 111.140625 339.125 112.609375 340.648438 113.839844 C 342.230469 115.011719 344.25 115.597656 346.714844 115.597656 C 349.175781 115.597656 350.960938 115.101562 352.074219 114.105469 C 353.246094 113.105469 353.832031 111.960938 353.832031 110.671875 C 353.832031 108.792969 353.011719 107.53125 351.371094 106.886719 C 349.730469 106.183594 347.445312 105.507812 344.515625 104.863281 C 342.640625 104.453125 340.734375 103.953125 338.800781 103.367188 C 336.867188 102.78125 335.082031 102.046875 333.4375 101.167969 C 331.855469 100.226562 330.566406 99.054688 329.570312 97.644531 C 328.574219 96.179688 328.078125 94.390625 328.078125 92.277344 C 328.078125 88.40625 329.601562 85.148438 332.648438 82.507812 C 335.753906 79.867188 340.089844 78.550781 345.65625 78.550781 C 350.816406 78.550781 354.917969 79.75 357.964844 82.15625 C 361.070312 84.5625 362.917969 87.878906 363.503906 92.101562 L 352.867188 92.101562 C 352.222656 88.875 349.789062 87.261719 345.570312 87.261719 C 343.460938 87.261719 341.820312 87.671875 340.648438 88.492188 C 339.535156 89.316406 338.976562 90.34375 338.976562 91.574219 C 338.976562 92.863281 339.828125 93.890625 341.527344 94.652344 C 343.226562 95.417969 345.480469 96.121094 348.296875 96.765625 C 351.34375 97.46875 354.125 98.261719 356.644531 99.144531 C 359.226562 99.964844 361.273438 101.226562 362.796875 102.925781 C 364.324219 104.570312 365.085938 106.945312 365.085938 110.054688 C 365.144531 112.753906 364.441406 115.191406 362.976562 117.359375 C 361.507812 119.53125 359.398438 121.230469 356.644531 122.464844 C 353.890625 123.695312 350.640625 124.3125 346.886719 124.3125 Z M 346.886719 124.3125 "/>
<path style=" stroke:none;fill-rule:nonzero;fill:rgb(0%,0%,0%);fill-opacity:1;" d="M 373.789062 142.617188 L 383.898438 120.351562 L 381.261719 120.351562 L 364.296875 79.605469 L 376.515625 79.605469 L 388.734375 110.320312 L 401.480469 79.605469 L 413.433594 79.605469 L 385.742188 142.617188 Z M 373.789062 142.617188 "/>
<path style=" stroke:none;fill-rule:nonzero;fill:rgb(0%,32.54902%,91.764706%);fill-opacity:1;" d="M 71.640625 116.203125 L 115.992188 71.804688 L 108.699219 64.5 L 64.347656 108.902344 Z M 71.640625 116.203125 "/>
<path style=" stroke:none;fill-rule:nonzero;fill:rgb(0%,32.54902%,91.764706%);fill-opacity:1;" d="M 89.175781 71.804688 L 71.640625 89.355469 L 64.347656 82.054688 L 81.882812 64.5 Z M 89.175781 71.804688 "/>
<path style=" stroke:none;fill-rule:nonzero;fill:rgb(0%,32.54902%,91.764706%);fill-opacity:1;" d="M 98.457031 116.203125 L 115.992188 98.652344 L 108.699219 91.347656 L 91.164062 108.902344 Z M 98.457031 116.203125 "/>
<path style=" stroke:none;fill-rule:evenodd;fill:rgb(0%,32.54902%,91.764706%);fill-opacity:1;" d="M 47.367188 133.207031 L 47.367188 46.46875 L 134.003906 46.46875 L 134.003906 133.207031 Z M 57.679688 56.792969 L 123.691406 56.792969 L 123.691406 122.878906 L 57.679688 122.878906 Z M 57.679688 56.792969 "/>
</g>
</svg>
