<?xml version="1.0" encoding="UTF-8"?>
<svg xmlns="http://www.w3.org/2000/svg" xmlns:xlink="http://www.w3.org/1999/xlink" width="446px" height="190px" viewBox="0 0 417 190" version="1.1">
<g id="surface1">
<path style=" stroke:none;fill-rule:nonzero;fill:rgb(0%,0%,0%);fill-opacity:1;" d="M 167.917969 68.664062 L 177.628906 68.664062 L 177.628906 121.027344 L 167.917969 121.027344 Z M 167.917969 68.664062 "/>
<path style=" stroke:none;fill-rule:nonzero;fill:rgb(0%,0%,0%);fill-opacity:1;" d="M 209.773438 80.632812 C 214.800781 80.632812 218.835938 82.101562 221.875 85.046875 C 224.910156 87.988281 226.429688 92.351562 226.429688 98.136719 L 226.429688 121.027344 L 217.09375 121.027344 L 217.09375 99.335938 C 217.09375 95.84375 216.269531 93.226562 214.628906 91.480469 C 212.984375 89.683594 210.644531 88.785156 207.605469 88.785156 C 204.171875 88.785156 201.457031 89.832031 199.464844 91.929688 C 197.472656 93.972656 196.476562 96.941406 196.476562 100.828125 L 196.476562 121.027344 L 187.140625 121.027344 L 187.140625 81.082031 L 196.027344 81.082031 L 196.027344 86.242188 C 197.574219 84.398438 199.515625 83 201.855469 82.054688 C 204.195312 81.105469 206.835938 80.632812 209.773438 80.632812 Z M 209.773438 80.632812 "/>
<path style=" stroke:none;fill-rule:nonzero;fill:rgb(0%,0%,0%);fill-opacity:1;" d="M 271.15625 81.082031 L 254.050781 121.027344 L 244.417969 121.027344 L 227.3125 81.082031 L 237.019531 81.082031 L 249.421875 110.703125 L 262.195312 81.082031 Z M 271.15625 81.082031 "/>
<path style=" stroke:none;fill-rule:nonzero;fill:rgb(0%,0%,0%);fill-opacity:1;" d="M 309.660156 101.277344 C 309.660156 101.925781 309.609375 102.847656 309.511719 104.046875 L 278.214844 104.046875 C 278.761719 106.988281 280.179688 109.332031 282.472656 111.078125 C 284.8125 112.773438 287.699219 113.621094 291.136719 113.621094 C 295.519531 113.621094 299.128906 112.175781 301.964844 109.28125 L 306.972656 115.042969 C 305.179688 117.1875 302.910156 118.808594 300.171875 119.90625 C 297.433594 121.003906 294.347656 121.550781 290.910156 121.550781 C 286.53125 121.550781 282.671875 120.679688 279.332031 118.933594 C 275.996094 117.1875 273.410156 114.769531 271.566406 111.675781 C 269.773438 108.535156 268.875 104.992188 268.875 101.054688 C 268.875 97.164062 269.75 93.671875 271.492188 90.582031 C 273.285156 87.441406 275.75 84.996094 278.886719 83.25 C 282.023438 81.503906 285.558594 80.632812 289.492188 80.632812 C 293.375 80.632812 296.835938 81.503906 299.875 83.25 C 302.960938 84.945312 305.351562 87.363281 307.046875 90.507812 C 308.789062 93.597656 309.660156 97.191406 309.660156 101.277344 Z M 289.492188 88.113281 C 286.503906 88.113281 283.964844 89.011719 281.875 90.804688 C 279.832031 92.550781 278.585938 94.894531 278.140625 97.835938 L 300.773438 97.835938 C 300.371094 94.945312 299.152344 92.601562 297.113281 90.804688 C 295.070312 89.011719 292.53125 88.113281 289.492188 88.113281 Z M 289.492188 88.113281 "/>
<path style=" stroke:none;fill-rule:nonzero;fill:rgb(0%,0%,0%);fill-opacity:1;" d="M 323.78125 86.917969 C 326.472656 82.726562 331.203125 81.378906 337.972656 81.378906 L 337.972656 88.859375 C 337.175781 88.710938 336.457031 88.636719 335.808594 88.636719 C 332.171875 88.636719 329.335938 90.382812 327.292969 92.527344 C 325.25 94.621094 324.230469 97.664062 324.230469 101.652344 L 324.230469 121.027344 L 314.894531 121.027344 L 314.894531 81.082031 L 323.78125 81.082031 Z M 323.78125 86.917969 "/>
<path style=" stroke:none;fill-rule:nonzero;fill:rgb(0%,0%,0%);fill-opacity:1;" d="M 369.472656 118.859375 C 368.378906 119.753906 367.035156 120.429688 365.441406 120.878906 C 363.898438 121.328125 362.253906 121.550781 360.511719 121.550781 C 356.128906 121.550781 352.742188 120.40625 350.351562 118.109375 C 347.960938 115.816406 346.765625 112.472656 346.765625 108.085938 L 346.765625 88.859375 L 340.195312 88.859375 L 340.195312 81.378906 L 346.765625 81.378906 L 346.765625 72.253906 L 356.105469 72.253906 L 356.105469 81.378906 L 366.785156 81.378906 L 366.785156 88.859375 L 356.105469 88.859375 L 356.105469 107.863281 C 356.105469 109.808594 356.578125 111.300781 357.523438 112.351562 C 358.46875 113.347656 359.839844 113.847656 361.632812 113.847656 C 363.722656 113.847656 365.464844 113.296875 366.859375 112.199219 Z M 369.472656 118.859375 "/>
<path style=" stroke:none;fill-rule:evenodd;fill:rgb(0%,0%,0%);fill-opacity:1;" d="M 143.5 95 C 143.5 121.492188 122.054688 142.96875 95.601562 142.96875 C 69.148438 142.96875 47.703125 121.492188 47.703125 95 C 47.703125 68.507812 69.148438 47.03125 95.601562 47.03125 C 122.054688 47.03125 143.5 68.507812 143.5 95 Z M 128.445312 95 C 128.445312 113.167969 113.742188 127.894531 95.601562 127.894531 C 94.34375 127.894531 93.101562 127.824219 91.882812 127.6875 C 108.390625 125.949219 121.253906 111.964844 121.253906 94.972656 C 121.253906 78.066406 108.515625 64.136719 92.128906 62.289062 C 93.269531 62.167969 94.429688 62.105469 95.601562 62.105469 C 113.742188 62.105469 128.445312 76.832031 128.445312 95 Z M 84.996094 118.167969 C 95.820312 116.253906 104.054688 106.609375 104.054688 95 C 104.054688 83.390625 95.820312 73.746094 84.996094 71.832031 C 86.304688 71.601562 87.652344 71.484375 89.027344 71.484375 C 101.992188 71.484375 112.507812 82.011719 112.507812 95 C 112.507812 107.988281 101.992188 118.515625 89.027344 118.515625 C 87.652344 118.515625 86.304688 118.394531 84.996094 118.167969 Z M 84.996094 118.167969 "/>
</g>
</svg>
