<?xml version="1.0" encoding="UTF-8"?>
<svg xmlns="http://www.w3.org/2000/svg" xmlns:xlink="http://www.w3.org/1999/xlink" width="446px" height="190px" viewBox="0 0 483 190" version="1.1">
<g id="surface1">
<path style=" stroke:none;fill-rule:nonzero;fill:rgb(100%,75.686275%,0%);fill-opacity:1;" d="M 68.300781 67.222656 C 73.253906 62.488281 79.980469 59.726562 86.800781 59.382812 C 89.132812 59.382812 91.476562 59.394531 93.808594 59.375 C 93.691406 61.878906 93.808594 64.390625 93.738281 66.890625 C 93.410156 72.488281 91.34375 77.957031 87.859375 82.347656 C 83.332031 88.253906 76.40625 92.214844 69.058594 93.238281 C 65.847656 93.757812 62.589844 93.425781 59.359375 93.519531 C 59.414062 90.761719 59.238281 88 59.457031 85.25 C 60.085938 78.433594 63.304688 71.90625 68.300781 67.222656 Z M 68.300781 67.222656 "/>
<path style=" stroke:none;fill-rule:nonzero;fill:rgb(100%,75.686275%,0%);fill-opacity:1;" d="M 95.96875 59.375 C 98.472656 59.402344 100.972656 59.359375 103.484375 59.390625 C 109.726562 59.832031 115.886719 62.230469 120.589844 66.386719 C 125.773438 70.839844 129.328125 77.207031 130.238281 84.011719 C 130.636719 87.164062 130.386719 90.355469 130.539062 93.527344 C 128.351562 93.519531 126.175781 93.511719 123.988281 93.527344 C 118.613281 93.378906 113.328125 91.640625 108.828125 88.707031 C 106.753906 87.222656 104.625 85.714844 103.070312 83.652344 C 99.65625 79.835938 97.335938 75.046875 96.460938 70 C 95.800781 66.492188 96.066406 62.917969 95.96875 59.375 Z M 95.96875 59.375 "/>
<path style=" stroke:none;fill-rule:nonzero;fill:rgb(100%,75.686275%,0%);fill-opacity:1;" d="M 59.363281 95.53125 C 61.585938 95.65625 63.8125 95.425781 66.027344 95.671875 C 75.507812 95.875 84.710938 101.203125 89.621094 109.316406 C 92.441406 113.863281 93.953125 119.246094 93.757812 124.597656 C 93.75 126.351562 93.777344 128.097656 93.730469 129.84375 C 90.210938 129.738281 86.660156 130.023438 83.175781 129.34375 C 75.4375 128.039062 68.324219 123.433594 64.042969 116.855469 C 60.800781 112.074219 59.179688 106.230469 59.347656 100.460938 C 59.347656 98.8125 59.347656 97.171875 59.363281 95.53125 Z M 59.363281 95.53125 "/>
<path style=" stroke:none;fill-rule:nonzero;fill:rgb(100%,75.686275%,0%);fill-opacity:1;" d="M 118.699219 96.273438 C 122.511719 95.425781 126.441406 95.566406 130.320312 95.566406 L 130.488281 95.734375 C 130.402344 99.402344 130.691406 103.113281 129.953125 106.738281 C 128.40625 114.871094 123.023438 122.136719 115.785156 126.125 C 111.277344 128.636719 106.105469 129.871094 100.957031 129.816406 C 99.308594 129.820312 97.65625 129.785156 96.007812 129.835938 C 96.007812 126.800781 95.882812 123.75 96.226562 120.726562 C 97.023438 113.414062 100.976562 106.605469 106.660156 102.003906 C 110.179688 99.226562 114.3125 97.214844 118.699219 96.273438 Z M 118.699219 96.273438 "/>
<path style=" stroke:none;fill-rule:nonzero;fill:rgb(0%,0%,0%);fill-opacity:1;" d="M 159.257812 116.261719 C 159.257812 117.496094 158.828125 118.539062 157.976562 119.394531 C 157.167969 120.203125 156.148438 120.605469 154.914062 120.605469 C 153.726562 120.605469 152.730469 120.203125 151.925781 119.394531 C 151.117188 118.539062 150.714844 117.496094 150.714844 116.261719 L 150.714844 72.246094 C 150.714844 71.011719 151.117188 69.988281 151.925781 69.183594 C 152.777344 68.328125 153.824219 67.898438 155.058594 67.898438 C 156.289062 67.898438 157.289062 68.328125 158.046875 69.183594 C 158.851562 69.988281 159.257812 71.011719 159.257812 72.246094 Z M 159.257812 116.261719 "/>
<path style=" stroke:none;fill-rule:nonzero;fill:rgb(0%,0%,0%);fill-opacity:1;" d="M 193.539062 82.5 C 194.773438 82.5 195.792969 82.929688 196.601562 83.785156 C 197.40625 84.589844 197.808594 85.609375 197.808594 86.847656 L 197.808594 104.9375 C 197.808594 109.96875 196.410156 113.957031 193.609375 116.902344 C 190.808594 119.847656 186.777344 121.320312 181.507812 121.320312 C 176.242188 121.320312 172.210938 119.847656 169.410156 116.902344 C 166.65625 113.957031 165.28125 109.96875 165.28125 104.9375 L 165.28125 86.847656 C 165.28125 85.609375 165.683594 84.589844 166.492188 83.785156 C 167.296875 82.929688 168.316406 82.5 169.550781 82.5 C 170.785156 82.5 171.804688 82.929688 172.613281 83.785156 C 173.417969 84.589844 173.824219 85.609375 173.824219 86.847656 L 173.824219 104.9375 C 173.824219 107.832031 174.464844 109.992188 175.746094 111.417969 C 177.027344 112.796875 178.949219 113.484375 181.507812 113.484375 C 184.121094 113.484375 186.066406 112.796875 187.347656 111.417969 C 188.628906 109.992188 189.269531 107.832031 189.269531 104.9375 L 189.269531 86.847656 C 189.269531 85.609375 189.671875 84.589844 190.480469 83.785156 C 191.285156 82.929688 192.304688 82.5 193.539062 82.5 Z M 193.539062 82.5 "/>
<path style=" stroke:none;fill-rule:nonzero;fill:rgb(0%,0%,0%);fill-opacity:1;" d="M 223.5 81.789062 C 227.292969 81.789062 230.09375 82.714844 231.898438 84.566406 C 233.699219 86.371094 234.886719 88.722656 235.457031 91.617188 L 234.246094 90.976562 L 234.816406 89.835938 C 235.386719 88.746094 236.261719 87.582031 237.449219 86.347656 C 238.636719 85.066406 240.058594 83.996094 241.71875 83.140625 C 243.429688 82.238281 245.324219 81.789062 247.414062 81.789062 C 250.832031 81.789062 253.417969 82.523438 255.171875 83.996094 C 256.976562 85.46875 258.210938 87.4375 258.875 89.910156 C 259.539062 92.328125 259.871094 95.035156 259.871094 98.027344 L 259.871094 116.261719 C 259.871094 117.496094 259.46875 118.539062 258.660156 119.394531 C 257.851562 120.203125 256.832031 120.605469 255.597656 120.605469 C 254.367188 120.605469 253.347656 120.203125 252.539062 119.394531 C 251.730469 118.539062 251.328125 117.496094 251.328125 116.261719 L 251.328125 98.027344 C 251.328125 96.460938 251.140625 95.058594 250.761719 93.824219 C 250.378906 92.542969 249.691406 91.523438 248.695312 90.761719 C 247.699219 90.003906 246.277344 89.625 244.425781 89.625 C 242.621094 89.625 241.078125 90.003906 239.796875 90.761719 C 238.515625 91.523438 237.542969 92.542969 236.878906 93.824219 C 236.261719 95.058594 235.953125 96.460938 235.953125 98.027344 L 235.953125 116.261719 C 235.953125 117.496094 235.550781 118.539062 234.746094 119.394531 C 233.9375 120.203125 232.917969 120.605469 231.683594 120.605469 C 230.449219 120.605469 229.429688 120.203125 228.625 119.394531 C 227.816406 118.539062 227.414062 117.496094 227.414062 116.261719 L 227.414062 98.027344 C 227.414062 96.460938 227.222656 95.058594 226.84375 93.824219 C 226.464844 92.542969 225.777344 91.523438 224.78125 90.761719 C 223.785156 90.003906 222.359375 89.625 220.507812 89.625 C 218.707031 89.625 217.164062 90.003906 215.882812 90.761719 C 214.601562 91.523438 213.628906 92.542969 212.964844 93.824219 C 212.347656 95.058594 212.039062 96.460938 212.039062 98.027344 L 212.039062 116.261719 C 212.039062 117.496094 211.636719 118.539062 210.828125 119.394531 C 210.023438 120.203125 209.003906 120.605469 207.769531 120.605469 C 206.535156 120.605469 205.515625 120.203125 204.707031 119.394531 C 203.902344 118.539062 203.496094 117.496094 203.496094 116.261719 L 203.496094 86.847656 C 203.496094 85.609375 203.902344 84.589844 204.707031 83.785156 C 205.515625 82.929688 206.535156 82.5 207.769531 82.5 C 209.003906 82.5 210.023438 82.929688 210.828125 83.785156 C 211.636719 84.589844 212.039062 85.609375 212.039062 86.847656 L 212.039062 89.910156 L 210.972656 89.695312 C 211.398438 88.886719 211.992188 88.03125 212.75 87.128906 C 213.507812 86.179688 214.433594 85.300781 215.527344 84.496094 C 216.617188 83.6875 217.828125 83.046875 219.15625 82.574219 C 220.484375 82.050781 221.933594 81.789062 223.5 81.789062 Z M 223.5 81.789062 "/>
<path style=" stroke:none;fill-rule:nonzero;fill:rgb(0%,0%,0%);fill-opacity:1;" d="M 273.597656 116.261719 C 273.597656 117.496094 273.195312 118.539062 272.386719 119.394531 C 271.582031 120.203125 270.5625 120.605469 269.328125 120.605469 C 268.09375 120.605469 267.074219 120.203125 266.265625 119.394531 C 265.460938 118.539062 265.058594 117.496094 265.058594 116.261719 L 265.058594 86.847656 C 265.058594 85.609375 265.460938 84.589844 266.265625 83.785156 C 267.074219 82.929688 268.09375 82.5 269.328125 82.5 C 270.5625 82.5 271.582031 82.929688 272.386719 83.785156 C 273.195312 84.589844 273.597656 85.609375 273.597656 86.847656 Z M 269.257812 77.871094 C 267.644531 77.871094 266.503906 77.609375 265.839844 77.089844 C 265.175781 76.566406 264.84375 75.640625 264.84375 74.308594 L 264.84375 72.957031 C 264.84375 71.582031 265.199219 70.652344 265.910156 70.179688 C 266.671875 69.65625 267.808594 69.394531 269.328125 69.394531 C 270.988281 69.394531 272.152344 69.65625 272.816406 70.179688 C 273.480469 70.703125 273.8125 71.628906 273.8125 72.957031 L 273.8125 74.308594 C 273.8125 75.6875 273.457031 76.636719 272.746094 77.160156 C 272.035156 77.632812 270.871094 77.871094 269.257812 77.871094 Z M 269.257812 77.871094 "/>
<path style=" stroke:none;fill-rule:nonzero;fill:rgb(0%,0%,0%);fill-opacity:1;" d="M 299.175781 81.789062 C 302.6875 81.789062 305.34375 82.523438 307.144531 83.996094 C 308.996094 85.46875 310.253906 87.4375 310.917969 89.910156 C 311.632812 92.328125 311.988281 95.035156 311.988281 98.027344 L 311.988281 116.261719 C 311.988281 117.496094 311.582031 118.539062 310.777344 119.394531 C 309.96875 120.203125 308.949219 120.605469 307.714844 120.605469 C 306.484375 120.605469 305.460938 120.203125 304.65625 119.394531 C 303.847656 118.539062 303.445312 117.496094 303.445312 116.261719 L 303.445312 98.027344 C 303.445312 96.460938 303.234375 95.058594 302.804688 93.824219 C 302.425781 92.542969 301.714844 91.523438 300.667969 90.761719 C 299.625 90.003906 298.132812 89.625 296.1875 89.625 C 294.285156 89.625 292.675781 90.003906 291.34375 90.761719 C 290.066406 91.523438 289.066406 92.542969 288.355469 93.824219 C 287.691406 95.058594 287.359375 96.460938 287.359375 98.027344 L 287.359375 116.261719 C 287.359375 117.496094 286.957031 118.539062 286.148438 119.394531 C 285.34375 120.203125 284.320312 120.605469 283.089844 120.605469 C 281.855469 120.605469 280.835938 120.203125 280.027344 119.394531 C 279.222656 118.539062 278.816406 117.496094 278.816406 116.261719 L 278.816406 86.847656 C 278.816406 85.609375 279.222656 84.589844 280.027344 83.785156 C 280.835938 82.929688 281.855469 82.5 283.089844 82.5 C 284.320312 82.5 285.34375 82.929688 286.148438 83.785156 C 286.957031 84.589844 287.359375 85.609375 287.359375 86.847656 L 287.359375 89.910156 L 286.292969 89.695312 C 286.71875 88.886719 287.335938 88.03125 288.140625 87.128906 C 288.949219 86.179688 289.898438 85.300781 290.988281 84.496094 C 292.082031 83.6875 293.316406 83.046875 294.691406 82.574219 C 296.066406 82.050781 297.5625 81.789062 299.175781 81.789062 Z M 299.175781 81.789062 "/>
<path style=" stroke:none;fill-rule:nonzero;fill:rgb(0%,0%,0%);fill-opacity:1;" d="M 354.246094 101.589844 C 354.246094 105.484375 353.367188 108.925781 351.613281 111.917969 C 349.902344 114.859375 347.578125 117.164062 344.636719 118.824219 C 341.742188 120.488281 338.492188 121.320312 334.886719 121.320312 C 331.277344 121.320312 328.003906 120.488281 325.0625 118.824219 C 322.167969 117.164062 319.84375 114.859375 318.085938 111.917969 C 316.378906 108.925781 315.523438 105.484375 315.523438 101.589844 C 315.523438 97.695312 316.378906 94.277344 318.085938 91.332031 C 319.84375 88.339844 322.167969 86.015625 325.0625 84.351562 C 328.003906 82.644531 331.277344 81.789062 334.886719 81.789062 C 338.492188 81.789062 341.742188 82.644531 344.636719 84.351562 C 347.578125 86.015625 349.902344 88.339844 351.613281 91.332031 C 353.367188 94.277344 354.246094 97.695312 354.246094 101.589844 Z M 345.703125 101.589844 C 345.703125 99.167969 345.207031 97.078125 344.210938 95.320312 C 343.261719 93.515625 341.957031 92.117188 340.292969 91.121094 C 338.679688 90.121094 336.878906 89.625 334.886719 89.625 C 332.894531 89.625 331.066406 90.121094 329.40625 91.121094 C 327.789062 92.117188 326.484375 93.515625 325.488281 95.320312 C 324.539062 97.078125 324.066406 99.167969 324.066406 101.589844 C 324.066406 103.964844 324.539062 106.050781 325.488281 107.855469 C 326.484375 109.613281 327.789062 110.992188 329.40625 111.988281 C 331.066406 112.984375 332.894531 113.484375 334.886719 113.484375 C 336.878906 113.484375 338.679688 112.984375 340.292969 111.988281 C 341.957031 110.992188 343.261719 109.613281 344.210938 107.855469 C 345.207031 106.050781 345.703125 103.964844 345.703125 101.589844 Z M 345.703125 101.589844 "/>
<path style=" stroke:none;fill-rule:nonzero;fill:rgb(0%,0%,0%);fill-opacity:1;" d="M 386.078125 82.5 C 387.3125 82.5 388.335938 82.929688 389.140625 83.785156 C 389.945312 84.589844 390.351562 85.609375 390.351562 86.847656 L 390.351562 104.9375 C 390.351562 109.96875 388.953125 113.957031 386.152344 116.902344 C 383.351562 119.847656 379.320312 121.320312 374.050781 121.320312 C 368.785156 121.320312 364.75 119.847656 361.949219 116.902344 C 359.199219 113.957031 357.824219 109.96875 357.824219 104.9375 L 357.824219 86.847656 C 357.824219 85.609375 358.226562 84.589844 359.03125 83.785156 C 359.839844 82.929688 360.859375 82.5 362.09375 82.5 C 363.328125 82.5 364.347656 82.929688 365.152344 83.785156 C 365.960938 84.589844 366.363281 85.609375 366.363281 86.847656 L 366.363281 104.9375 C 366.363281 107.832031 367.003906 109.992188 368.285156 111.417969 C 369.566406 112.796875 371.488281 113.484375 374.050781 113.484375 C 376.660156 113.484375 378.605469 112.796875 379.886719 111.417969 C 381.167969 109.992188 381.808594 107.832031 381.808594 104.9375 L 381.808594 86.847656 C 381.808594 85.609375 382.214844 84.589844 383.019531 83.785156 C 383.824219 82.929688 384.847656 82.5 386.078125 82.5 Z M 386.078125 82.5 "/>
<path style=" stroke:none;fill-rule:nonzero;fill:rgb(0%,0%,0%);fill-opacity:1;" d="M 393.832031 114.695312 C 393.359375 114.03125 393.144531 113.175781 393.191406 112.128906 C 393.238281 111.085938 393.855469 110.183594 395.042969 109.421875 C 395.800781 108.949219 396.609375 108.757812 397.460938 108.855469 C 398.316406 108.902344 399.148438 109.328125 399.953125 110.136719 C 401.332031 111.511719 402.777344 112.582031 404.296875 113.339844 C 405.8125 114.101562 407.710938 114.480469 409.988281 114.480469 C 410.703125 114.433594 411.484375 114.339844 412.339844 114.195312 C 413.191406 114.003906 413.929688 113.625 414.542969 113.054688 C 415.210938 112.4375 415.542969 111.511719 415.542969 110.277344 C 415.542969 109.234375 415.183594 108.402344 414.472656 107.785156 C 413.761719 107.167969 412.8125 106.644531 411.625 106.21875 C 410.488281 105.792969 409.207031 105.386719 407.785156 105.007812 C 406.3125 104.582031 404.792969 104.105469 403.226562 103.582031 C 401.707031 103.0625 400.308594 102.394531 399.027344 101.589844 C 397.746094 100.734375 396.703125 99.617188 395.894531 98.242188 C 395.089844 96.863281 394.6875 95.132812 394.6875 93.042969 C 394.6875 90.667969 395.351562 88.648438 396.679688 86.988281 C 398.007812 85.328125 399.714844 84.042969 401.804688 83.140625 C 403.941406 82.238281 406.167969 81.789062 408.496094 81.789062 C 409.964844 81.789062 411.507812 81.980469 413.121094 82.359375 C 414.734375 82.691406 416.277344 83.261719 417.746094 84.066406 C 419.21875 84.828125 420.453125 85.847656 421.449219 87.128906 C 421.972656 87.84375 422.28125 88.699219 422.375 89.695312 C 422.46875 90.691406 422.019531 91.59375 421.023438 92.402344 C 420.3125 92.972656 419.480469 93.230469 418.53125 93.183594 C 417.582031 93.089844 416.800781 92.757812 416.183594 92.1875 C 415.375 91.144531 414.285156 90.3125 412.90625 89.695312 C 411.578125 89.078125 410.039062 88.769531 408.28125 88.769531 C 407.570312 88.769531 406.785156 88.863281 405.933594 89.054688 C 405.125 89.195312 404.414062 89.550781 403.796875 90.121094 C 403.179688 90.644531 402.871094 91.5 402.871094 92.6875 C 402.871094 93.777344 403.226562 94.65625 403.941406 95.320312 C 404.652344 95.9375 405.601562 96.460938 406.785156 96.886719 C 408.019531 97.269531 409.324219 97.648438 410.703125 98.027344 C 412.125 98.40625 413.574219 98.859375 415.042969 99.382812 C 416.515625 99.902344 417.867188 100.59375 419.101562 101.445312 C 420.335938 102.300781 421.332031 103.417969 422.089844 104.792969 C 422.847656 106.125 423.230469 107.832031 423.230469 109.921875 C 423.230469 112.34375 422.515625 114.410156 421.09375 116.117188 C 419.671875 117.828125 417.890625 119.132812 415.753906 120.035156 C 413.621094 120.890625 411.4375 121.320312 409.207031 121.320312 C 406.40625 121.320312 403.609375 120.84375 400.808594 119.894531 C 398.007812 118.894531 395.683594 117.164062 393.832031 114.695312 Z M 393.832031 114.695312 "/>
</g>
</svg>
