<?xml version="1.0" encoding="UTF-8"?>
<svg xmlns="http://www.w3.org/2000/svg" xmlns:xlink="http://www.w3.org/1999/xlink" width="446px" height="190px" viewBox="0 0 603 190" version="1.1">
<g id="surface1">
<path style=" stroke:none;fill-rule:nonzero;fill:rgb(100%,40%,39.607843%);fill-opacity:1;" d="M 136.125 111.082031 C 154.835938 100.566406 178.511719 107.078125 189.238281 125.683594 L 173.09375 135.015625 C 154.296875 145.882812 130.253906 139.300781 119.597656 120.363281 Z M 136.125 111.082031 "/>
<path style=" stroke:none;fill-rule:nonzero;fill:rgb(100%,40%,39.607843%);fill-opacity:0.8;" d="M 129.277344 103.710938 C 139.96875 85.171875 163.640625 78.820312 182.15625 89.523438 L 172.480469 106.308594 C 161.789062 124.847656 138.117188 131.199219 119.601562 120.496094 Z M 129.277344 103.710938 "/>
<path style=" stroke:none;fill-rule:nonzero;fill:rgb(100%,40%,39.607843%);fill-opacity:0.8;" d="M 118.765625 101.914062 C 118.765625 79.429688 136.96875 61.203125 159.421875 61.203125 L 159.421875 80.199219 C 159.421875 102.6875 141.21875 120.914062 118.765625 120.914062 Z M 118.765625 101.914062 "/>
<path style=" stroke:none;fill-rule:nonzero;fill:rgb(100%,40%,39.607843%);fill-opacity:0.8;" d="M 109.171875 102.6875 C 98.480469 84.148438 104.824219 60.441406 123.339844 49.738281 L 133.019531 66.523438 C 143.707031 85.0625 137.363281 108.769531 118.851562 119.472656 Z M 109.171875 102.6875 "/>
<path style=" stroke:none;fill-rule:nonzero;fill:rgb(100%,40%,39.607843%);fill-opacity:0.8;" d="M 118.765625 99.199219 C 118.765625 78.214844 101.773438 61.203125 80.816406 61.203125 L 80.816406 82.914062 C 80.816406 103.902344 97.808594 120.914062 118.765625 120.914062 Z M 118.765625 99.199219 "/>
<path style=" stroke:none;fill-rule:nonzero;fill:rgb(100%,40%,39.607843%);fill-opacity:0.8;" d="M 110.597656 103.710938 C 99.90625 85.171875 76.230469 78.820312 57.71875 89.523438 L 67.394531 106.308594 C 78.085938 124.847656 101.757812 131.199219 120.273438 120.496094 Z M 110.597656 103.710938 "/>
<path style=" stroke:none;fill-rule:nonzero;fill:rgb(100%,40%,39.607843%);fill-opacity:1;" d="M 103.75 111.082031 C 85.039062 100.566406 61.363281 107.078125 50.636719 125.683594 L 66.78125 135.015625 C 85.578125 145.882812 109.621094 139.300781 120.277344 120.363281 Z M 103.75 111.082031 "/>
<path style=" stroke:none;fill-rule:nonzero;fill:rgb(0%,0%,0%);fill-opacity:1;" d="M 258.230469 75.8125 L 258.230469 117.890625 L 249.804688 117.890625 L 249.804688 90.523438 L 238.546875 117.890625 L 232.164062 117.890625 L 220.847656 90.523438 L 220.847656 117.890625 L 212.417969 117.890625 L 212.417969 75.8125 L 221.992188 75.8125 L 235.355469 107.101562 L 248.71875 75.8125 Z M 258.230469 75.8125 "/>
<path style=" stroke:none;fill-rule:nonzero;fill:rgb(0%,0%,0%);fill-opacity:1;" d="M 268.429688 80.515625 C 266.945312 80.515625 265.703125 80.050781 264.699219 79.128906 C 263.734375 78.164062 263.253906 76.976562 263.253906 75.570312 C 263.253906 74.164062 263.734375 73 264.699219 72.074219 C 265.703125 71.109375 266.945312 70.628906 268.429688 70.628906 C 269.914062 70.628906 271.140625 71.109375 272.101562 72.074219 C 273.105469 73 273.609375 74.164062 273.609375 75.570312 C 273.609375 76.976562 273.105469 78.164062 272.101562 79.128906 C 271.140625 80.050781 269.914062 80.515625 268.429688 80.515625 Z M 272.585938 84.492188 L 272.585938 117.890625 L 264.15625 117.890625 L 264.15625 84.492188 Z M 272.585938 84.492188 "/>
<path style=" stroke:none;fill-rule:nonzero;fill:rgb(0%,0%,0%);fill-opacity:1;" d="M 296.984375 84.011719 C 300.960938 84.011719 304.171875 85.277344 306.617188 87.808594 C 309.066406 90.300781 310.289062 93.796875 310.289062 98.296875 L 310.289062 117.890625 L 301.863281 117.890625 L 301.863281 99.445312 C 301.863281 96.792969 301.199219 94.761719 299.875 93.355469 C 298.550781 91.910156 296.746094 91.183594 294.457031 91.183594 C 292.128906 91.183594 290.285156 91.910156 288.917969 93.355469 C 287.59375 94.761719 286.933594 96.792969 286.933594 99.445312 L 286.933594 117.890625 L 278.503906 117.890625 L 278.503906 84.492188 L 286.933594 84.492188 L 286.933594 88.652344 C 288.054688 87.207031 289.480469 86.082031 291.207031 85.277344 C 292.972656 84.433594 294.898438 84.011719 296.984375 84.011719 Z M 296.984375 84.011719 "/>
<path style=" stroke:none;fill-rule:nonzero;fill:rgb(0%,0%,0%);fill-opacity:1;" d="M 313.730469 101.070312 C 313.730469 97.695312 314.390625 94.703125 315.714844 92.089844 C 317.082031 89.476562 318.925781 87.46875 321.253906 86.0625 C 323.582031 84.65625 326.171875 83.949219 329.019531 83.949219 C 331.1875 83.949219 333.253906 84.433594 335.222656 85.398438 C 337.1875 86.324219 338.753906 87.566406 339.917969 89.136719 L 339.917969 73.28125 L 348.464844 73.28125 L 348.464844 117.890625 L 339.917969 117.890625 L 339.917969 112.949219 C 338.875 114.597656 337.410156 115.921875 335.523438 116.925781 C 333.636719 117.929688 331.449219 118.433594 328.960938 118.433594 C 326.152344 118.433594 323.582031 117.710938 321.253906 116.261719 C 318.925781 114.816406 317.082031 112.789062 315.714844 110.175781 C 314.390625 107.523438 313.730469 104.488281 313.730469 101.070312 Z M 339.976562 101.191406 C 339.976562 99.144531 339.578125 97.394531 338.773438 95.949219 C 337.972656 94.460938 336.886719 93.335938 335.523438 92.570312 C 334.160156 91.769531 332.695312 91.367188 331.128906 91.367188 C 329.5625 91.367188 328.117188 91.746094 326.792969 92.511719 C 325.46875 93.273438 324.386719 94.398438 323.542969 95.886719 C 322.738281 97.335938 322.339844 99.0625 322.339844 101.070312 C 322.339844 103.082031 322.738281 104.847656 323.542969 106.378906 C 324.386719 107.863281 325.46875 109.007812 326.792969 109.8125 C 328.15625 110.617188 329.605469 111.019531 331.128906 111.019531 C 332.695312 111.019531 334.160156 110.636719 335.523438 109.871094 C 336.886719 109.070312 337.972656 107.945312 338.773438 106.496094 C 339.578125 105.011719 339.976562 103.242188 339.976562 101.191406 Z M 339.976562 101.191406 "/>
<path style=" stroke:none;fill-rule:nonzero;fill:rgb(0%,0%,0%);fill-opacity:1;" d="M 369.582031 91.425781 L 363.742188 91.425781 L 363.742188 117.890625 L 355.191406 117.890625 L 355.191406 91.425781 L 351.402344 91.425781 L 351.402344 84.492188 L 355.191406 84.492188 L 355.191406 82.804688 C 355.191406 78.707031 356.355469 75.691406 358.683594 73.761719 C 361.011719 71.832031 364.523438 70.929688 369.222656 71.050781 L 369.222656 78.164062 C 367.171875 78.125 365.75 78.464844 364.945312 79.1875 C 364.144531 79.910156 363.742188 81.21875 363.742188 83.105469 L 363.742188 84.492188 L 369.582031 84.492188 Z M 369.582031 91.425781 "/>
<path style=" stroke:none;fill-rule:nonzero;fill:rgb(0%,0%,0%);fill-opacity:1;" d="M 404.121094 84.492188 L 404.121094 117.890625 L 395.632812 117.890625 L 395.632812 113.671875 C 394.546875 115.117188 393.125 116.261719 391.359375 117.109375 C 389.632812 117.910156 387.746094 118.3125 385.699219 118.3125 C 383.089844 118.3125 380.78125 117.769531 378.777344 116.683594 C 376.769531 115.558594 375.183594 113.933594 374.019531 111.800781 C 372.894531 109.632812 372.335938 107.058594 372.335938 104.085938 L 372.335938 84.492188 L 380.761719 84.492188 L 380.761719 102.878906 C 380.761719 105.53125 381.425781 107.582031 382.75 109.027344 C 384.074219 110.4375 385.878906 111.140625 388.167969 111.140625 C 390.496094 111.140625 392.320312 110.4375 393.644531 109.027344 C 394.96875 107.582031 395.632812 105.53125 395.632812 102.878906 L 395.632812 84.492188 Z M 404.121094 84.492188 "/>
<path style=" stroke:none;fill-rule:nonzero;fill:rgb(0%,0%,0%);fill-opacity:1;" d="M 418.457031 73.28125 L 418.457031 117.890625 L 410.027344 117.890625 L 410.027344 73.28125 Z M 418.457031 73.28125 "/>
<path style=" stroke:none;fill-rule:nonzero;fill:rgb(0%,0%,0%);fill-opacity:1;" d="M 442.859375 84.011719 C 446.832031 84.011719 450.042969 85.277344 452.492188 87.808594 C 454.9375 90.300781 456.164062 93.796875 456.164062 98.296875 L 456.164062 117.890625 L 447.734375 117.890625 L 447.734375 99.445312 C 447.734375 96.792969 447.074219 94.761719 445.75 93.355469 C 444.425781 91.910156 442.617188 91.183594 440.328125 91.183594 C 438 91.183594 436.15625 91.910156 434.789062 93.355469 C 433.464844 94.761719 432.804688 96.792969 432.804688 99.445312 L 432.804688 117.890625 L 424.375 117.890625 L 424.375 84.492188 L 432.804688 84.492188 L 432.804688 88.652344 C 433.929688 87.207031 435.351562 86.082031 437.078125 85.277344 C 438.84375 84.433594 440.769531 84.011719 442.859375 84.011719 Z M 442.859375 84.011719 "/>
<path style=" stroke:none;fill-rule:nonzero;fill:rgb(0%,0%,0%);fill-opacity:1;" d="M 492.773438 100.46875 C 492.773438 101.675781 492.695312 102.761719 492.53125 103.722656 L 468.152344 103.722656 C 468.351562 106.136719 469.195312 108.023438 470.679688 109.390625 C 472.164062 110.757812 473.992188 111.441406 476.160156 111.441406 C 479.289062 111.441406 481.515625 110.09375 482.839844 107.402344 L 491.929688 107.402344 C 490.96875 110.617188 489.121094 113.269531 486.390625 115.359375 C 483.664062 117.410156 480.3125 118.433594 476.339844 118.433594 C 473.128906 118.433594 470.238281 117.730469 467.667969 116.324219 C 465.140625 114.875 463.15625 112.847656 461.710938 110.234375 C 460.304688 107.621094 459.601562 104.609375 459.601562 101.191406 C 459.601562 97.734375 460.304688 94.703125 461.710938 92.089844 C 463.113281 89.476562 465.082031 87.46875 467.609375 86.0625 C 470.136719 84.65625 473.046875 83.949219 476.339844 83.949219 C 479.507812 83.949219 482.339844 84.632812 484.828125 86 C 487.355469 87.367188 489.300781 89.316406 490.667969 91.847656 C 492.070312 94.339844 492.773438 97.214844 492.773438 100.46875 Z M 484.042969 98.058594 C 484.003906 95.886719 483.222656 94.160156 481.695312 92.875 C 480.171875 91.546875 478.304688 90.882812 476.097656 90.882812 C 474.011719 90.882812 472.246094 91.527344 470.800781 92.8125 C 469.394531 94.058594 468.53125 95.808594 468.210938 98.058594 Z M 484.042969 98.058594 "/>
<path style=" stroke:none;fill-rule:nonzero;fill:rgb(0%,0%,0%);fill-opacity:1;" d="M 509.28125 118.433594 C 506.550781 118.433594 504.101562 117.953125 501.933594 116.984375 C 499.769531 115.980469 498.042969 114.636719 496.757812 112.949219 C 495.515625 111.257812 494.832031 109.390625 494.710938 107.339844 L 503.199219 107.339844 C 503.359375 108.628906 503.984375 109.691406 505.066406 110.535156 C 506.191406 111.378906 507.574219 111.800781 509.21875 111.800781 C 510.824219 111.800781 512.070312 111.480469 512.953125 110.835938 C 513.875 110.195312 514.335938 109.371094 514.335938 108.367188 C 514.335938 107.28125 513.777344 106.476562 512.652344 105.953125 C 511.570312 105.390625 509.820312 104.789062 507.414062 104.144531 C 504.925781 103.542969 502.878906 102.921875 501.273438 102.277344 C 499.707031 101.632812 498.34375 100.648438 497.179688 99.324219 C 496.054688 97.996094 495.492188 96.207031 495.492188 93.957031 C 495.492188 92.109375 496.015625 90.421875 497.058594 88.894531 C 498.140625 87.367188 499.667969 86.160156 501.632812 85.277344 C 503.640625 84.394531 505.988281 83.949219 508.679688 83.949219 C 512.652344 83.949219 515.824219 84.957031 518.191406 86.964844 C 520.558594 88.933594 521.863281 91.605469 522.105469 94.984375 L 514.035156 94.984375 C 513.914062 93.65625 513.355469 92.613281 512.351562 91.847656 C 511.386719 91.042969 510.082031 90.644531 508.4375 90.644531 C 506.914062 90.644531 505.726562 90.925781 504.886719 91.488281 C 504.082031 92.050781 503.683594 92.832031 503.683594 93.835938 C 503.683594 94.964844 504.242188 95.828125 505.367188 96.429688 C 506.492188 96.992188 508.238281 97.574219 510.605469 98.179688 C 513.011719 98.78125 515 99.402344 516.5625 100.046875 C 518.128906 100.691406 519.476562 101.695312 520.597656 103.0625 C 521.761719 104.386719 522.363281 106.15625 522.40625 108.367188 C 522.40625 110.296875 521.863281 112.023438 520.78125 113.550781 C 519.734375 115.078125 518.210938 116.28125 516.203125 117.167969 C 514.238281 118.011719 511.929688 118.433594 509.28125 118.433594 Z M 509.28125 118.433594 "/>
<path style=" stroke:none;fill-rule:nonzero;fill:rgb(0%,0%,0%);fill-opacity:1;" d="M 539.679688 118.433594 C 536.949219 118.433594 534.5 117.953125 532.332031 116.984375 C 530.167969 115.980469 528.441406 114.636719 527.15625 112.949219 C 525.910156 111.257812 525.230469 109.390625 525.109375 107.339844 L 533.597656 107.339844 C 533.757812 108.628906 534.378906 109.691406 535.464844 110.535156 C 536.585938 111.378906 537.972656 111.800781 539.617188 111.800781 C 541.222656 111.800781 542.46875 111.480469 543.351562 110.835938 C 544.273438 110.195312 544.734375 109.371094 544.734375 108.367188 C 544.734375 107.28125 544.171875 106.476562 543.046875 105.953125 C 541.964844 105.390625 540.21875 104.789062 537.8125 104.144531 C 535.324219 103.542969 533.277344 102.921875 531.671875 102.277344 C 530.105469 101.632812 528.742188 100.648438 527.578125 99.324219 C 526.453125 97.996094 525.890625 96.207031 525.890625 93.957031 C 525.890625 92.109375 526.414062 90.421875 527.457031 88.894531 C 528.539062 87.367188 530.066406 86.160156 532.03125 85.277344 C 534.039062 84.394531 536.386719 83.949219 539.074219 83.949219 C 543.046875 83.949219 546.21875 84.957031 548.589844 86.964844 C 550.957031 88.933594 552.257812 91.605469 552.5 94.984375 L 544.433594 94.984375 C 544.3125 93.65625 543.75 92.613281 542.746094 91.847656 C 541.785156 91.042969 540.480469 90.644531 538.835938 90.644531 C 537.308594 90.644531 536.125 90.925781 535.28125 91.488281 C 534.480469 92.050781 534.078125 92.832031 534.078125 93.835938 C 534.078125 94.964844 534.640625 95.828125 535.765625 96.429688 C 536.886719 96.992188 538.632812 97.574219 541.003906 98.179688 C 543.410156 98.78125 545.398438 99.402344 546.960938 100.046875 C 548.527344 100.691406 549.871094 101.695312 550.996094 103.0625 C 552.160156 104.386719 552.761719 106.15625 552.800781 108.367188 C 552.800781 110.296875 552.257812 112.023438 551.175781 113.550781 C 550.132812 115.078125 548.609375 116.28125 546.601562 117.167969 C 544.632812 118.011719 542.328125 118.433594 539.679688 118.433594 Z M 539.679688 118.433594 "/>
</g>
</svg>
