<?xml version="1.0" encoding="UTF-8"?>
<svg xmlns="http://www.w3.org/2000/svg" xmlns:xlink="http://www.w3.org/1999/xlink" width="446px" height="190px" viewBox="0 0 383 190" version="1.1">
<g id="surface1">
<path style=" stroke:none;fill-rule:nonzero;fill:rgb(20.392157%,73.72549%,52.156863%);fill-opacity:1;" d="M 114.15625 68.8125 C 114.15625 75.210938 108.976562 80.394531 102.585938 80.394531 C 96.195312 80.394531 91.015625 75.210938 91.015625 68.8125 C 91.015625 62.414062 96.195312 57.230469 102.585938 57.230469 C 108.976562 57.230469 114.15625 62.414062 114.15625 68.8125 Z M 114.15625 68.8125 "/>
<path style=" stroke:none;fill-rule:nonzero;fill:rgb(20.392157%,73.72549%,52.156863%);fill-opacity:1;" d="M 96.351562 119.796875 C 75.300781 119.796875 58.242188 102.71875 58.242188 81.648438 L 58.242188 63.332031 C 79.289062 63.332031 96.351562 80.414062 96.351562 101.484375 Z M 96.351562 119.796875 "/>
<path style=" stroke:none;fill-rule:nonzero;fill:rgb(20.392157%,73.72549%,52.156863%);fill-opacity:1;" d="M 138.269531 75.542969 C 117.222656 75.542969 100.160156 92.625 100.160156 113.695312 L 100.160156 132.007812 C 121.207031 132.007812 138.269531 114.925781 138.269531 93.855469 Z M 138.269531 75.542969 "/>
<path style=" stroke:none;fill-rule:nonzero;fill:rgb(5.882353%,31.764706%,33.72549%);fill-opacity:1;" d="M 208.734375 68.609375 L 208.734375 114.546875 L 199.535156 114.546875 L 199.535156 84.667969 L 187.242188 114.546875 L 180.273438 114.546875 L 167.917969 84.667969 L 167.917969 114.546875 L 158.714844 114.546875 L 158.714844 68.609375 L 169.164062 68.609375 L 183.757812 102.765625 L 198.351562 68.609375 Z M 208.734375 68.609375 "/>
<path style=" stroke:none;fill-rule:nonzero;fill:rgb(5.882353%,31.764706%,33.72549%);fill-opacity:1;" d="M 219.871094 73.746094 C 218.25 73.746094 216.890625 73.238281 215.796875 72.230469 C 214.746094 71.179688 214.21875 69.882812 214.21875 68.347656 C 214.21875 66.8125 214.746094 65.539062 215.796875 64.53125 C 216.890625 63.476562 218.25 62.953125 219.871094 62.953125 C 221.492188 62.953125 222.832031 63.476562 223.882812 64.53125 C 224.976562 65.539062 225.527344 66.8125 225.527344 68.347656 C 225.527344 69.882812 224.976562 71.179688 223.882812 72.230469 C 222.832031 73.238281 221.492188 73.746094 219.871094 73.746094 Z M 224.410156 78.085938 L 224.410156 114.546875 L 215.207031 114.546875 L 215.207031 78.085938 Z M 224.410156 78.085938 "/>
<path style=" stroke:none;fill-rule:nonzero;fill:rgb(5.882353%,31.764706%,33.72549%);fill-opacity:1;" d="M 251.050781 77.5625 C 255.390625 77.5625 258.894531 78.941406 261.570312 81.707031 C 264.242188 84.425781 265.578125 88.242188 265.578125 93.15625 L 265.578125 114.546875 L 256.375 114.546875 L 256.375 94.40625 C 256.375 91.511719 255.652344 89.296875 254.207031 87.761719 C 252.761719 86.183594 250.789062 85.390625 248.289062 85.390625 C 245.75 85.390625 243.734375 86.183594 242.242188 87.761719 C 240.796875 89.296875 240.074219 91.511719 240.074219 94.40625 L 240.074219 114.546875 L 230.871094 114.546875 L 230.871094 78.085938 L 240.074219 78.085938 L 240.074219 82.628906 C 241.300781 81.050781 242.859375 79.820312 244.742188 78.941406 C 246.667969 78.023438 248.773438 77.5625 251.050781 77.5625 Z M 251.050781 77.5625 "/>
<path style=" stroke:none;fill-rule:nonzero;fill:rgb(5.882353%,31.764706%,33.72549%);fill-opacity:1;" d="M 282.414062 85.65625 L 282.414062 103.292969 C 282.414062 104.519531 282.699219 105.421875 283.269531 105.992188 C 283.882812 106.515625 284.890625 106.78125 286.292969 106.78125 L 290.566406 106.78125 L 290.566406 114.546875 L 284.78125 114.546875 C 277.027344 114.546875 273.144531 110.773438 273.144531 103.226562 L 273.144531 85.65625 L 266.316406 85.65625 L 266.316406 78.085938 L 273.144531 78.085938 L 273.144531 69.070312 L 282.414062 69.070312 Z M 282.414062 85.65625 "/>
<path style=" stroke:none;fill-rule:nonzero;fill:rgb(5.882353%,31.764706%,33.72549%);fill-opacity:1;" d="M 325.070312 78.085938 L 302.523438 131.785156 L 292.730469 131.785156 L 300.617188 113.625 L 286.023438 78.085938 L 296.34375 78.085938 L 305.742188 103.554688 L 315.273438 78.085938 Z M 325.070312 78.085938 "/>
</g>
</svg>
