<?xml version="1.0" encoding="UTF-8"?>
<svg xmlns="http://www.w3.org/2000/svg" xmlns:xlink="http://www.w3.org/1999/xlink" width="446px" height="190px" viewBox="0 0 650 190" version="1.1">
<g id="surface1">
<path style=" stroke:none;fill-rule:evenodd;fill:rgb(0%,31.372549%,100%);fill-opacity:1;" d="M 105.351562 51.976562 C 96.570312 51.976562 89.449219 59.101562 89.449219 67.890625 C 89.449219 76.679688 96.570312 83.808594 105.351562 83.808594 C 114.132812 83.808594 121.253906 76.679688 121.253906 67.890625 C 121.253906 59.101562 114.132812 51.976562 105.351562 51.976562 Z M 74.257812 82.9375 C 90.8125 82.9375 104.230469 96.371094 104.230469 112.9375 L 104.230469 137.523438 L 89.324219 137.523438 L 89.324219 112.9375 C 89.324219 111.171875 89.019531 109.480469 88.464844 107.90625 L 66.566406 129.824219 L 56.023438 119.273438 L 77.140625 98.136719 C 76.210938 97.957031 75.246094 97.859375 74.257812 97.859375 L 49.695312 97.859375 L 49.695312 82.9375 Z M 136.816406 82.9375 C 120.261719 82.9375 106.84375 96.371094 106.84375 112.9375 L 106.84375 137.523438 L 121.75 137.523438 L 121.75 112.9375 C 121.75 111.554688 121.9375 110.21875 122.285156 108.945312 L 145.191406 131.871094 L 155.734375 121.320312 L 132.828125 98.394531 C 134.097656 98.046875 135.433594 97.859375 136.816406 97.859375 L 161.378906 97.859375 L 161.378906 82.9375 Z M 136.816406 82.9375 "/>
<path style=" stroke:none;fill-rule:nonzero;fill:rgb(4.705882%,15.686275%,30.980392%);fill-opacity:1;" d="M 185.234375 138.382812 L 185.234375 52.617188 L 209.5 52.617188 L 235.523438 126.113281 L 237.398438 126.113281 L 237.398438 52.617188 L 251.285156 52.617188 L 251.285156 138.382812 L 227.515625 138.382812 L 200.871094 64.761719 L 199.117188 64.761719 L 199.117188 138.382812 Z M 185.234375 138.382812 "/>
<path style=" stroke:none;fill-rule:nonzero;fill:rgb(4.705882%,15.686275%,30.980392%);fill-opacity:1;" d="M 306.914062 127.117188 L 310.414062 126.742188 L 310.664062 136.882812 C 301.15625 138.800781 292.734375 139.761719 285.394531 139.761719 C 276.140625 139.761719 269.464844 137.214844 265.382812 132.125 C 261.378906 127.03125 259.375 118.894531 259.375 107.710938 C 259.375 85.503906 268.425781 74.402344 286.523438 74.402344 C 304.035156 74.402344 312.792969 83.960938 312.792969 103.078125 L 311.917969 112.84375 L 273.136719 112.84375 C 273.21875 118.019531 274.347656 121.816406 276.515625 124.234375 C 278.683594 126.65625 282.726562 127.867188 288.648438 127.867188 C 294.570312 127.867188 300.65625 127.617188 306.914062 127.117188 Z M 299.40625 102.324219 C 299.40625 96.148438 298.40625 91.847656 296.402344 89.429688 C 294.488281 86.925781 291.191406 85.671875 286.523438 85.671875 C 281.851562 85.671875 278.433594 86.964844 276.265625 89.554688 C 274.179688 92.140625 273.09375 96.398438 273.011719 102.324219 Z M 299.40625 102.324219 "/>
<path style=" stroke:none;fill-rule:nonzero;fill:rgb(4.705882%,15.686275%,30.980392%);fill-opacity:1;" d="M 353.300781 87.425781 L 336.035156 87.425781 L 336.035156 114.972656 C 336.035156 120.0625 336.410156 123.441406 337.164062 125.113281 C 337.914062 126.78125 339.832031 127.617188 342.917969 127.617188 L 353.175781 127.242188 L 353.800781 138.132812 C 348.210938 139.21875 343.960938 139.761719 341.039062 139.761719 C 333.953125 139.761719 329.074219 138.132812 326.40625 134.878906 C 323.816406 131.625 322.527344 125.488281 322.527344 116.472656 L 322.527344 87.425781 L 314.519531 87.425781 L 314.519531 75.78125 L 322.527344 75.78125 L 322.527344 57.625 L 336.035156 57.625 L 336.035156 75.78125 L 353.300781 75.78125 Z M 353.300781 87.425781 "/>
<path style=" stroke:none;fill-rule:nonzero;fill:rgb(4.705882%,15.686275%,30.980392%);fill-opacity:1;" d="M 353.347656 75.78125 L 366.734375 75.78125 L 376.617188 126.742188 L 379.117188 126.742188 L 391.003906 77.035156 L 405.015625 77.035156 L 416.898438 126.742188 L 419.398438 126.742188 L 429.15625 75.78125 L 442.667969 75.78125 L 429.40625 138.382812 L 407.765625 138.382812 L 398.007812 95.4375 L 388.25 138.382812 L 366.609375 138.382812 Z M 353.347656 75.78125 "/>
<path style=" stroke:none;fill-rule:nonzero;fill:rgb(4.705882%,15.686275%,30.980392%);fill-opacity:1;" d="M 451.371094 82.542969 C 455.707031 77.117188 462.878906 74.402344 472.890625 74.402344 C 482.894531 74.402344 490.027344 77.117188 494.28125 82.542969 C 498.617188 87.96875 500.785156 96.105469 500.785156 106.957031 C 500.785156 117.808594 498.699219 125.988281 494.53125 131.496094 C 490.359375 137.007812 483.148438 139.761719 472.890625 139.761719 C 462.632812 139.761719 455.417969 137.007812 451.246094 131.496094 C 447.078125 125.988281 444.992188 117.808594 444.992188 106.957031 C 444.992188 96.105469 447.117188 87.96875 451.371094 82.542969 Z M 461.628906 123.234375 C 463.546875 126.574219 467.300781 128.242188 472.890625 128.242188 C 478.476562 128.242188 482.230469 126.574219 484.148438 123.234375 C 486.066406 119.894531 487.023438 114.429688 487.023438 106.832031 C 487.023438 99.238281 485.980469 93.851562 483.898438 90.679688 C 481.894531 87.507812 478.226562 85.921875 472.890625 85.921875 C 467.550781 85.921875 463.839844 87.507812 461.753906 90.679688 C 459.753906 93.851562 458.753906 99.238281 458.753906 106.832031 C 458.753906 114.429688 459.710938 119.894531 461.628906 123.234375 Z M 461.628906 123.234375 "/>
<path style=" stroke:none;fill-rule:nonzero;fill:rgb(4.705882%,15.686275%,30.980392%);fill-opacity:1;" d="M 508.074219 138.382812 L 508.074219 75.78125 L 521.585938 75.78125 L 521.585938 83.292969 C 528.671875 78.703125 535.761719 75.738281 542.851562 74.402344 L 542.851562 88.050781 C 535.679688 89.46875 529.550781 91.308594 524.460938 93.5625 L 521.710938 94.6875 L 521.710938 138.382812 Z M 508.074219 138.382812 "/>
<path style=" stroke:none;fill-rule:nonzero;fill:rgb(4.705882%,15.686275%,30.980392%);fill-opacity:1;" d="M 560.65625 138.382812 L 547.019531 138.382812 L 547.019531 49.738281 L 560.65625 49.738281 L 560.65625 100.949219 L 568.410156 100.195312 L 583.171875 75.78125 L 598.433594 75.78125 L 580.421875 105.078125 L 599.4375 138.382812 L 584.050781 138.382812 L 568.789062 111.964844 L 560.65625 112.84375 Z M 560.65625 138.382812 "/>
</g>
</svg>
