<?xml version="1.0" encoding="UTF-8"?>
<svg xmlns="http://www.w3.org/2000/svg" xmlns:xlink="http://www.w3.org/1999/xlink" width="446px" height="190px" viewBox="0 0 446 190" version="1.1">
<g id="surface1">
<path style=" stroke:none;fill-rule:nonzero;fill:rgb(0%,88.235294%,89.803922%);fill-opacity:1;" d="M 89.035156 36.921875 C 92.367188 35.109375 96.472656 35.109375 99.808594 36.921875 L 143.941406 60.953125 L 113.425781 77.808594 C 108.699219 73.335938 102.164062 70.566406 94.941406 70.566406 C 87.429688 70.566406 80.65625 73.5625 75.898438 78.351562 L 44.644531 61.09375 Z M 89.035156 36.921875 "/>
<path style=" stroke:none;fill-rule:nonzero;fill:rgb(0%,88.235294%,89.803922%);fill-opacity:1;" d="M 69.949219 88.085938 L 38.691406 70.824219 L 38.691406 119.082031 L 69.832031 101.882812 C 69.191406 99.75 68.851562 97.5 68.851562 95.171875 C 68.851562 92.710938 69.234375 90.332031 69.949219 88.085938 Z M 69.949219 88.085938 "/>
<path style=" stroke:none;fill-rule:nonzero;fill:rgb(0%,88.235294%,89.803922%);fill-opacity:1;" d="M 75.617188 111.707031 L 45.136719 128.539062 L 89.035156 152.441406 C 92.367188 154.257812 96.472656 154.257812 99.808594 152.441406 L 143.449219 128.679688 L 113.714844 112.257812 C 108.96875 116.894531 102.3125 119.777344 94.941406 119.777344 C 87.28125 119.777344 80.390625 116.664062 75.617188 111.707031 Z M 75.617188 111.707031 "/>
<path style=" stroke:none;fill-rule:nonzero;fill:rgb(0%,88.235294%,89.803922%);fill-opacity:1;" d="M 119.816406 102.605469 L 150.148438 119.359375 C 150.148438 119.292969 150.152344 119.230469 150.152344 119.164062 L 150.152344 70.546875 L 119.6875 87.367188 C 120.558594 89.820312 121.027344 92.445312 121.027344 95.171875 C 121.027344 97.765625 120.605469 100.261719 119.816406 102.605469 Z M 119.816406 102.605469 "/>
<path style=" stroke:none;fill-rule:evenodd;fill:rgb(14.117647%,16.470588%,19.215686%);fill-opacity:1;" d="M 186.257812 122.863281 C 190.628906 125.378906 195.882812 126.636719 202.011719 126.636719 C 208.144531 126.636719 213.398438 125.378906 217.769531 122.863281 C 222.171875 120.320312 225.535156 116.785156 227.863281 112.257812 C 230.21875 107.734375 231.394531 102.484375 231.394531 96.515625 C 231.394531 90.542969 230.21875 85.296875 227.863281 80.773438 C 225.535156 76.246094 222.171875 72.726562 217.769531 70.207031 C 213.398438 67.664062 208.144531 66.394531 202.011719 66.394531 C 195.882812 66.394531 190.628906 67.664062 186.257812 70.207031 C 181.886719 72.726562 178.519531 76.246094 176.164062 80.773438 C 173.835938 85.296875 172.671875 90.542969 172.671875 96.515625 C 172.671875 102.484375 173.835938 107.734375 176.164062 112.257812 C 178.519531 116.785156 181.886719 120.320312 186.257812 122.863281 Z M 212.277344 114.949219 C 209.550781 116.691406 206.128906 117.546875 202.011719 117.523438 C 197.898438 117.46875 194.460938 116.570312 191.707031 114.832031 C 188.980469 113.089844 186.9375 110.667969 185.574219 107.558594 C 184.214844 104.429688 183.53125 100.746094 183.53125 96.515625 C 183.53125 92.285156 184.214844 88.589844 185.574219 85.429688 C 186.964844 82.269531 189.023438 79.820312 191.75 78.082031 C 194.476562 76.339844 197.898438 75.484375 202.011719 75.511719 C 206.128906 75.5625 209.550781 76.460938 212.277344 78.199219 C 215.03125 79.941406 217.085938 82.378906 218.449219 85.511719 C 219.84375 88.617188 220.539062 92.285156 220.539062 96.515625 C 220.539062 100.746094 219.84375 104.441406 218.449219 107.601562 C 217.085938 110.761719 215.03125 113.210938 212.277344 114.949219 Z M 212.277344 114.949219 "/>
<path style=" stroke:none;fill-rule:nonzero;fill:rgb(14.117647%,16.470588%,19.215686%);fill-opacity:1;" d="M 236.464844 123.402344 C 236.464844 124.523438 237.429688 125.433594 238.621094 125.433594 L 244.617188 125.433594 C 245.808594 125.433594 246.773438 124.523438 246.773438 123.402344 L 246.773438 103.382812 C 246.773438 101.722656 246.984375 100.183594 247.410156 98.765625 C 247.835938 97.320312 248.488281 96.035156 249.367188 94.910156 C 250.277344 93.785156 251.441406 92.859375 252.863281 92.136719 C 254.28125 91.335938 255.871094 90.867188 257.628906 90.730469 C 258.292969 90.683594 258.921875 90.667969 259.523438 90.6875 C 260.960938 90.734375 262.359375 89.738281 262.359375 88.382812 L 262.359375 83.777344 C 262.359375 82.785156 261.597656 81.921875 260.542969 81.867188 C 259.757812 81.828125 258.957031 81.835938 258.140625 81.894531 C 256.695312 81.976562 255.273438 82.230469 253.882812 82.660156 C 252.519531 83.0625 251.269531 83.625 250.136719 84.347656 C 248.800781 85.121094 247.652344 86.113281 246.6875 87.316406 C 246.265625 87.847656 245.882812 88.402344 245.535156 88.984375 L 245.535156 84.089844 C 245.535156 82.964844 244.570312 82.058594 243.382812 82.058594 L 238.621094 82.058594 C 237.429688 82.058594 236.464844 82.964844 236.464844 84.089844 Z M 236.464844 123.402344 "/>
<path style=" stroke:none;fill-rule:evenodd;fill:rgb(14.117647%,16.470588%,19.215686%);fill-opacity:1;" d="M 289.179688 126.636719 C 284.695312 126.636719 280.929688 125.632812 277.894531 123.625 C 277.25 123.199219 276.640625 122.742188 276.0625 122.25 L 276.0625 123.402344 C 276.0625 124.523438 275.097656 125.433594 273.910156 125.433594 L 269.148438 125.433594 C 267.957031 125.433594 266.992188 124.523438 266.992188 123.402344 L 266.992188 69.628906 C 266.992188 68.507812 267.957031 67.597656 269.148438 67.597656 L 275.183594 67.597656 C 276.375 67.597656 277.339844 68.507812 277.339844 69.628906 L 277.339844 84.160156 C 277.480469 84.058594 277.621094 83.960938 277.765625 83.863281 C 280.746094 81.855469 284.421875 80.851562 288.796875 80.851562 C 293.140625 80.851562 296.902344 81.855469 300.082031 83.863281 C 303.289062 85.84375 305.773438 88.5625 307.53125 92.015625 C 309.292969 95.445312 310.171875 99.355469 310.171875 103.746094 C 310.171875 108.082031 309.308594 111.980469 307.574219 115.433594 C 305.84375 118.886719 303.402344 121.617188 300.25 123.625 C 297.097656 125.632812 293.410156 126.636719 289.179688 126.636719 Z M 277.210938 96.316406 C 276.445312 98.429688 276.0625 100.90625 276.0625 103.746094 C 276.0625 106.554688 276.445312 109.035156 277.210938 111.175781 C 278.007812 113.316406 279.242188 114.992188 280.917969 116.195312 C 282.621094 117.375 284.851562 117.960938 287.601562 117.960938 C 290.273438 117.960938 292.472656 117.332031 294.203125 116.074219 C 295.9375 114.816406 297.210938 113.117188 298.035156 110.972656 C 298.886719 108.804688 299.316406 106.394531 299.316406 103.746094 C 299.316406 101.121094 298.886719 98.738281 298.035156 96.597656 C 297.183594 94.425781 295.863281 92.714844 294.074219 91.453125 C 292.289062 90.167969 290.015625 89.527344 287.261719 89.527344 C 284.648438 89.527344 282.523438 90.128906 280.875 91.335938 C 279.226562 92.511719 278.007812 94.171875 277.210938 96.316406 Z M 277.210938 96.316406 "/>
<path style=" stroke:none;fill-rule:nonzero;fill:rgb(14.117647%,16.470588%,19.215686%);fill-opacity:1;" d="M 317.003906 123.402344 C 317.003906 124.523438 317.96875 125.433594 319.160156 125.433594 L 325.113281 125.433594 C 326.304688 125.433594 327.269531 124.523438 327.269531 123.402344 L 327.269531 84.089844 C 327.269531 82.964844 326.304688 82.058594 325.113281 82.058594 L 319.160156 82.058594 C 317.96875 82.058594 317.003906 82.964844 317.003906 84.089844 Z M 317.003906 123.402344 "/>
<path style=" stroke:none;fill-rule:nonzero;fill:rgb(14.117647%,16.470588%,19.215686%);fill-opacity:1;" d="M 363.574219 123.746094 C 363.574219 124.722656 362.835938 125.570312 361.808594 125.710938 C 359.378906 126.046875 356.988281 126.179688 354.628906 126.117188 C 351.734375 126.0625 349.136719 125.566406 346.835938 124.628906 C 344.539062 123.667969 342.792969 122.152344 341.597656 120.089844 C 340.550781 118.21875 339.996094 116.304688 339.9375 114.347656 C 339.882812 112.394531 339.851562 110.183594 339.851562 107.722656 L 339.851562 89.648438 L 333.660156 89.648438 C 332.472656 89.648438 331.507812 88.738281 331.507812 87.617188 L 331.507812 84.089844 C 331.507812 82.964844 332.472656 82.058594 333.660156 82.058594 L 339.851562 82.058594 L 339.851562 72.039062 C 339.851562 70.917969 340.816406 70.007812 342.007812 70.007812 L 347.917969 70.007812 C 349.109375 70.007812 350.074219 70.917969 350.074219 72.039062 L 350.074219 82.058594 L 361.417969 82.058594 C 362.609375 82.058594 363.574219 82.964844 363.574219 84.089844 L 363.574219 87.617188 C 363.574219 88.738281 362.609375 89.648438 361.417969 89.648438 L 350.074219 89.648438 L 350.074219 107.160156 C 350.074219 108.898438 350.089844 110.425781 350.117188 111.738281 C 350.171875 113.050781 350.472656 114.121094 351.011719 114.949219 C 352.03125 116.558594 353.664062 117.453125 355.90625 117.640625 C 357.480469 117.773438 359.210938 117.757812 361.09375 117.601562 C 362.402344 117.488281 363.574219 118.433594 363.574219 119.675781 Z M 363.574219 123.746094 "/>
<path style=" stroke:none;fill-rule:nonzero;fill:rgb(14.117647%,16.470588%,19.215686%);fill-opacity:1;" d="M 375.5625 123.667969 C 378.914062 125.648438 382.957031 126.636719 387.699219 126.636719 C 392.835938 126.636719 397.179688 125.460938 400.730469 123.105469 C 403.707031 121.105469 405.933594 118.394531 407.410156 114.964844 C 407.882812 113.871094 407.140625 112.683594 405.917969 112.425781 L 399.597656 111.09375 C 398.523438 110.867188 397.460938 111.453125 396.972656 112.382812 C 396.238281 113.796875 395.289062 114.933594 394.128906 115.792969 C 392.566406 116.972656 390.425781 117.5625 387.699219 117.5625 C 383.839844 117.5625 380.929688 116.289062 378.96875 113.746094 C 377.011719 111.203125 376.03125 107.867188 376.03125 103.746094 C 376.03125 101.09375 376.441406 98.726562 377.265625 96.636719 C 378.089844 94.546875 379.367188 92.914062 381.097656 91.734375 C 382.832031 90.53125 385.03125 89.929688 387.699219 89.929688 C 390.054688 89.929688 392.15625 90.585938 394.003906 91.898438 C 395.34375 92.832031 396.40625 94.039062 397.191406 95.523438 C 397.707031 96.492188 398.835938 97.097656 399.945312 96.8125 L 406.15625 95.226562 C 407.28125 94.9375 407.976562 93.847656 407.585938 92.808594 C 406.320312 89.414062 404.148438 86.675781 401.070312 84.585938 C 397.464844 82.097656 393.050781 80.851562 387.828125 80.851562 C 383.171875 80.851562 379.152344 81.84375 375.777344 83.824219 C 372.398438 85.777344 369.785156 88.484375 367.941406 91.9375 C 366.121094 95.363281 365.199219 99.300781 365.171875 103.746094 C 365.199219 108.109375 366.09375 112.019531 367.855469 115.472656 C 369.644531 118.925781 372.210938 121.65625 375.5625 123.667969 Z M 375.5625 123.667969 "/>
<path style=" stroke:none;fill-rule:nonzero;fill:rgb(14.117647%,16.470588%,19.215686%);fill-opacity:1;" d="M 316.761719 70.367188 L 319.652344 67.640625 C 320.910156 66.453125 322.957031 66.453125 324.21875 67.640625 L 327.109375 70.367188 C 328.375 71.558594 328.375 73.488281 327.109375 74.679688 L 324.21875 77.40625 C 322.957031 78.597656 320.910156 78.597656 319.652344 77.40625 L 316.761719 74.679688 C 315.496094 73.488281 315.496094 71.558594 316.761719 70.367188 Z M 316.761719 70.367188 "/>
</g>
</svg>
