<?xml version="1.0" encoding="UTF-8"?>
<svg xmlns="http://www.w3.org/2000/svg" xmlns:xlink="http://www.w3.org/1999/xlink" width="446px" height="190px" viewBox="0 0 451 190" version="1.1">
<g id="surface1">
<path style=" stroke:none;fill-rule:nonzero;fill:rgb(100%,55.686275%,25.882353%);fill-opacity:1;" d="M 90.683594 144.289062 L 58.582031 144.289062 L 90.683594 95.65625 L 122.785156 95.65625 Z M 90.683594 144.289062 "/>
<path style=" stroke:none;fill-rule:nonzero;fill:rgb(100%,40%,0%);fill-opacity:1;" d="M 78.9375 45.453125 L 111.820312 45.453125 L 78.9375 95.65625 L 46.050781 95.65625 Z M 78.9375 45.453125 "/>
<path style=" stroke:none;fill-rule:nonzero;fill:rgb(0%,0%,0%);fill-opacity:1;" d="M 188.273438 87.761719 C 188.273438 90.746094 187.554688 93.539062 186.121094 96.148438 C 184.738281 98.757812 182.53125 100.863281 179.503906 102.460938 C 176.523438 104.058594 172.75 104.855469 168.179688 104.855469 L 158.847656 104.855469 L 158.847656 126.265625 L 147.6875 126.265625 L 147.6875 70.507812 L 168.179688 70.507812 C 172.484375 70.507812 176.152344 71.253906 179.183594 72.742188 C 182.214844 74.234375 184.472656 76.285156 185.960938 78.894531 C 187.503906 81.503906 188.273438 84.460938 188.273438 87.761719 Z M 167.699219 95.828125 C 170.785156 95.828125 173.070312 95.136719 174.558594 93.753906 C 176.046875 92.316406 176.792969 90.316406 176.792969 87.761719 C 176.792969 82.328125 173.761719 79.613281 167.699219 79.613281 L 158.847656 79.613281 L 158.847656 95.828125 Z M 167.699219 95.828125 "/>
<path style=" stroke:none;fill-rule:nonzero;fill:rgb(0%,0%,0%);fill-opacity:1;" d="M 204.175781 88.878906 C 205.609375 86.535156 207.46875 84.699219 209.753906 83.367188 C 212.09375 82.035156 214.753906 81.371094 217.730469 81.371094 L 217.730469 93.113281 L 214.78125 93.113281 C 211.269531 93.113281 208.613281 93.941406 206.804688 95.589844 C 205.050781 97.242188 204.175781 100.117188 204.175781 104.21875 L 204.175781 126.265625 L 193.011719 126.265625 L 193.011719 82.011719 L 204.175781 82.011719 Z M 204.175781 88.878906 "/>
<path style=" stroke:none;fill-rule:nonzero;fill:rgb(0%,0%,0%);fill-opacity:1;" d="M 241.675781 126.984375 C 237.421875 126.984375 233.59375 126.054688 230.191406 124.191406 C 226.792969 122.273438 224.105469 119.582031 222.140625 116.121094 C 220.226562 112.660156 219.269531 108.664062 219.269531 104.136719 C 219.269531 99.613281 220.253906 95.617188 222.21875 92.15625 C 224.238281 88.695312 226.976562 86.03125 230.433594 84.167969 C 233.886719 82.25 237.742188 81.292969 241.996094 81.292969 C 246.246094 81.292969 250.101562 82.25 253.558594 84.167969 C 257.011719 86.03125 259.722656 88.695312 261.691406 92.15625 C 263.710938 95.617188 264.722656 99.613281 264.722656 104.136719 C 264.722656 108.664062 263.683594 112.660156 261.613281 116.121094 C 259.589844 119.582031 256.828125 122.273438 253.320312 124.191406 C 249.863281 126.054688 245.980469 126.984375 241.675781 126.984375 Z M 241.675781 117.238281 C 243.695312 117.238281 245.582031 116.761719 247.335938 115.800781 C 249.144531 114.789062 250.582031 113.300781 251.644531 111.328125 C 252.707031 109.355469 253.238281 106.960938 253.238281 104.136719 C 253.238281 99.929688 252.121094 96.710938 249.890625 94.472656 C 247.710938 92.183594 245.027344 91.039062 241.835938 91.039062 C 238.644531 91.039062 235.960938 92.183594 233.78125 94.472656 C 231.65625 96.710938 230.59375 99.929688 230.59375 104.136719 C 230.59375 108.34375 231.628906 111.59375 233.703125 113.882812 C 235.828125 116.121094 238.488281 117.238281 241.675781 117.238281 Z M 241.675781 117.238281 "/>
<path style=" stroke:none;fill-rule:nonzero;fill:rgb(0%,0%,0%);fill-opacity:1;" d="M 280.882812 117.398438 L 292.875 117.398438 L 292.875 126.265625 L 269.71875 126.265625 L 269.71875 63.636719 L 280.882812 63.636719 Z M 280.882812 117.398438 "/>
<path style=" stroke:none;fill-rule:nonzero;fill:rgb(0%,0%,0%);fill-opacity:1;" d="M 301.53125 76.738281 C 299.566406 76.738281 297.917969 76.125 296.589844 74.898438 C 295.3125 73.621094 294.675781 72.050781 294.675781 70.1875 C 294.675781 68.324219 295.3125 66.777344 296.589844 65.554688 C 297.917969 64.277344 299.566406 63.636719 301.53125 63.636719 C 303.5 63.636719 305.121094 64.277344 306.398438 65.554688 C 307.726562 66.777344 308.390625 68.324219 308.390625 70.1875 C 308.390625 72.050781 307.726562 73.621094 306.398438 74.898438 C 305.121094 76.125 303.5 76.738281 301.53125 76.738281 Z M 307.035156 82.011719 L 307.035156 126.265625 L 295.871094 126.265625 L 295.871094 82.011719 Z M 307.035156 82.011719 "/>
<path style=" stroke:none;fill-rule:nonzero;fill:rgb(0%,0%,0%);fill-opacity:1;" d="M 339.355469 81.371094 C 344.617188 81.371094 348.871094 83.046875 352.113281 86.402344 C 355.355469 89.707031 356.980469 94.339844 356.980469 100.304688 L 356.980469 126.265625 L 345.816406 126.265625 L 345.816406 101.820312 C 345.816406 98.304688 344.9375 95.617188 343.183594 93.753906 C 341.429688 91.835938 339.035156 90.878906 336.007812 90.878906 C 332.921875 90.878906 330.476562 91.835938 328.671875 93.753906 C 326.917969 95.617188 326.039062 98.304688 326.039062 101.820312 L 326.039062 126.265625 L 314.875 126.265625 L 314.875 82.011719 L 326.039062 82.011719 L 326.039062 87.523438 C 327.527344 85.605469 329.414062 84.113281 331.699219 83.046875 C 334.039062 81.929688 336.589844 81.371094 339.355469 81.371094 Z M 339.355469 81.371094 "/>
<path style=" stroke:none;fill-rule:nonzero;fill:rgb(0%,0%,0%);fill-opacity:1;" d="M 405.472656 103.179688 C 405.472656 104.777344 405.367188 106.214844 405.152344 107.492188 L 372.859375 107.492188 C 373.125 110.6875 374.238281 113.191406 376.207031 115.003906 C 378.175781 116.8125 380.59375 117.71875 383.464844 117.71875 C 387.609375 117.71875 390.5625 115.933594 392.316406 112.367188 L 404.355469 112.367188 C 403.078125 116.628906 400.632812 120.140625 397.019531 122.910156 C 393.40625 125.628906 388.964844 126.984375 383.703125 126.984375 C 379.449219 126.984375 375.621094 126.054688 372.21875 124.191406 C 368.871094 122.273438 366.238281 119.582031 364.324219 116.121094 C 362.464844 112.660156 361.535156 108.664062 361.535156 104.136719 C 361.535156 99.558594 362.464844 95.539062 364.324219 92.074219 C 366.1875 88.613281 368.789062 85.949219 372.140625 84.085938 C 375.488281 82.222656 379.34375 81.292969 383.703125 81.292969 C 387.902344 81.292969 391.652344 82.195312 394.945312 84.007812 C 398.292969 85.816406 400.875 88.402344 402.679688 91.757812 C 404.542969 95.058594 405.472656 98.867188 405.472656 103.179688 Z M 393.910156 99.984375 C 393.855469 97.109375 392.820312 94.816406 390.800781 93.113281 C 388.777344 91.355469 386.308594 90.476562 383.382812 90.476562 C 380.621094 90.476562 378.28125 91.328125 376.367188 93.035156 C 374.507812 94.683594 373.363281 97 372.9375 99.984375 Z M 393.910156 99.984375 "/>
</g>
</svg>
