<?xml version="1.0" encoding="UTF-8"?>
<svg xmlns="http://www.w3.org/2000/svg" xmlns:xlink="http://www.w3.org/1999/xlink" width="446px" height="190px" viewBox="0 0 446 190" version="1.1">
<g id="surface1">
<path style=" stroke:none;fill-rule:nonzero;fill:rgb(100%,78.039216%,0%);fill-opacity:1;" d="M 84.886719 59.6875 L 59.359375 59.6875 L 59.359375 49.738281 L 84.886719 49.738281 C 93.703125 49.738281 100.84375 58.644531 100.84375 69.632812 L 100.84375 101.464844 L 92.867188 101.464844 L 92.867188 69.632812 C 92.867188 64.140625 89.296875 59.6875 84.886719 59.6875 Z M 84.886719 59.6875 "/>
<path style=" stroke:none;fill-rule:nonzero;fill:rgb(100%,78.039216%,0%);fill-opacity:1;" d="M 56.167969 115.394531 L 81.695312 115.394531 L 81.695312 125.339844 L 56.167969 125.339844 C 47.351562 125.339844 40.210938 116.433594 40.210938 105.445312 L 40.210938 73.613281 L 48.1875 73.613281 L 48.1875 105.445312 C 48.1875 110.9375 51.757812 115.394531 56.167969 115.394531 Z M 56.167969 115.394531 "/>
<path style=" stroke:none;fill-rule:evenodd;fill:rgb(100%,78.039216%,0%);fill-opacity:1;" d="M 86.484375 87.539062 C 86.484375 98.527344 79.339844 107.433594 70.527344 107.433594 C 61.714844 107.433594 54.570312 98.527344 54.570312 87.539062 C 54.570312 76.550781 61.714844 67.644531 70.527344 67.644531 C 79.339844 67.644531 86.484375 76.550781 86.484375 87.539062 Z M 78.507812 87.539062 C 78.507812 93.035156 74.933594 97.488281 70.527344 97.488281 C 66.121094 97.488281 62.550781 93.035156 62.550781 87.539062 C 62.550781 82.046875 66.121094 77.589844 70.527344 77.589844 C 74.933594 77.589844 78.507812 82.046875 78.507812 87.539062 Z M 78.507812 87.539062 "/>
<path style=" stroke:none;fill-rule:nonzero;fill:rgb(0%,0%,0%);fill-opacity:1;" d="M 134.894531 119.003906 C 131.871094 119.003906 129.152344 118.359375 126.734375 117.066406 C 124.316406 115.722656 122.417969 113.835938 121.035156 111.414062 C 119.652344 108.992188 118.964844 106.167969 118.964844 102.9375 L 126.863281 102.9375 C 127.035156 105.359375 127.792969 107.351562 129.132812 108.910156 C 130.511719 110.472656 132.433594 111.253906 134.894531 111.253906 C 137.441406 111.253906 139.425781 110.5 140.851562 108.992188 C 142.277344 107.429688 142.988281 105.441406 142.988281 103.019531 C 142.988281 101.132812 142.535156 99.601562 141.628906 98.414062 C 140.765625 97.230469 139.664062 96.316406 138.328125 95.671875 C 137.03125 95.023438 135.21875 94.324219 132.886719 93.570312 C 129.949219 92.601562 127.554688 91.632812 125.699219 90.664062 C 123.886719 89.640625 122.332031 88.082031 121.035156 85.980469 C 119.738281 83.882812 119.09375 81.082031 119.09375 77.585938 C 119.09375 74.355469 119.738281 71.527344 121.035156 69.105469 C 122.332031 66.683594 124.144531 64.828125 126.476562 63.535156 C 128.808594 62.242188 131.503906 61.597656 134.570312 61.597656 C 138.929688 61.597656 142.492188 62.96875 145.253906 65.714844 C 148.0625 68.40625 149.617188 72.121094 149.917969 76.859375 L 141.757812 76.859375 C 141.628906 74.8125 140.851562 73.0625 139.425781 71.609375 C 138.003906 70.15625 136.125 69.429688 133.792969 69.429688 C 131.675781 69.429688 129.949219 70.101562 128.613281 71.449219 C 127.273438 72.792969 126.605469 74.730469 126.605469 77.261719 C 126.605469 78.984375 127.015625 80.410156 127.835938 81.539062 C 128.699219 82.617188 129.777344 83.480469 131.074219 84.125 C 132.367188 84.769531 134.136719 85.46875 136.382812 86.222656 C 139.363281 87.246094 141.78125 88.269531 143.636719 89.292969 C 145.535156 90.316406 147.132812 91.902344 148.429688 94.054688 C 149.765625 96.15625 150.4375 98.980469 150.4375 102.535156 C 150.4375 105.386719 149.808594 108.078125 148.558594 110.609375 C 147.347656 113.136719 145.558594 115.183594 143.183594 116.746094 C 140.851562 118.25 138.089844 119.003906 134.894531 119.003906 Z M 134.894531 119.003906 "/>
<path style=" stroke:none;fill-rule:nonzero;fill:rgb(0%,0%,0%);fill-opacity:1;" d="M 173.910156 73.222656 C 176.71875 73.222656 179.222656 73.953125 181.425781 75.40625 C 183.667969 76.859375 185.417969 79.011719 186.667969 81.863281 C 187.921875 84.714844 188.546875 88.160156 188.546875 92.199219 L 188.546875 118.441406 L 181.230469 118.441406 L 181.230469 93.570312 C 181.230469 89.589844 180.429688 86.546875 178.835938 84.449219 C 177.238281 82.292969 175.054688 81.21875 172.292969 81.21875 C 169.53125 81.21875 167.328125 82.292969 165.6875 84.449219 C 164.089844 86.546875 163.292969 89.589844 163.292969 93.570312 L 163.292969 118.441406 L 155.910156 118.441406 L 155.910156 73.953125 L 163.292969 73.953125 L 163.292969 79.039062 C 164.5 77.207031 166.035156 75.78125 167.890625 74.757812 C 169.789062 73.734375 171.796875 73.222656 173.910156 73.222656 Z M 173.910156 73.222656 "/>
<path style=" stroke:none;fill-rule:nonzero;fill:rgb(0%,0%,0%);fill-opacity:1;" d="M 192.265625 95.992188 C 192.265625 91.527344 193 87.570312 194.46875 84.125 C 195.980469 80.679688 198.007812 78.015625 200.554688 76.132812 C 203.144531 74.195312 205.996094 73.222656 209.101562 73.222656 C 211.910156 73.222656 214.347656 73.925781 216.421875 75.324219 C 218.535156 76.667969 220.21875 78.363281 221.472656 80.410156 L 221.472656 73.953125 L 228.917969 73.953125 L 228.917969 118.441406 L 221.472656 118.441406 L 221.472656 111.820312 C 220.21875 113.917969 218.515625 115.667969 216.355469 117.066406 C 214.199219 118.464844 211.738281 119.167969 208.972656 119.167969 C 205.910156 119.167969 203.101562 118.199219 200.554688 116.261719 C 198.007812 114.269531 195.980469 111.523438 194.46875 108.023438 C 193 104.472656 192.265625 100.460938 192.265625 95.992188 Z M 221.472656 96.15625 C 221.472656 93.085938 220.953125 90.421875 219.917969 88.160156 C 218.925781 85.902344 217.609375 84.179688 215.96875 82.996094 C 214.328125 81.808594 212.558594 81.21875 210.65625 81.21875 C 208.757812 81.21875 206.988281 81.808594 205.347656 82.996094 C 203.707031 84.125 202.367188 85.820312 201.332031 88.082031 C 200.339844 90.289062 199.84375 92.925781 199.84375 95.992188 C 199.84375 99.0625 200.339844 101.753906 201.332031 104.066406 C 202.367188 106.382812 203.707031 108.160156 205.347656 109.394531 C 207.03125 110.582031 208.800781 111.171875 210.65625 111.171875 C 212.558594 111.171875 214.328125 110.582031 215.96875 109.394531 C 217.609375 108.210938 218.925781 106.488281 219.917969 104.230469 C 220.953125 101.914062 221.472656 99.222656 221.472656 96.15625 Z M 221.472656 96.15625 "/>
<path style=" stroke:none;fill-rule:nonzero;fill:rgb(0%,0%,0%);fill-opacity:1;" d="M 242.761719 80.492188 C 244.011719 78.445312 245.71875 76.722656 247.875 75.324219 C 250.035156 73.925781 252.472656 73.222656 255.195312 73.222656 C 258.300781 73.222656 261.128906 74.195312 263.679688 76.132812 C 266.269531 78.015625 268.296875 80.679688 269.765625 84.125 C 271.234375 87.570312 271.964844 91.527344 271.964844 95.992188 C 271.964844 100.460938 271.234375 104.472656 269.765625 108.023438 C 268.296875 111.523438 266.269531 114.269531 263.679688 116.261719 C 261.128906 118.199219 258.300781 119.167969 255.195312 119.167969 C 252.472656 119.167969 250.058594 118.492188 247.941406 117.148438 C 245.824219 115.75 244.097656 114.027344 242.761719 111.980469 L 242.761719 139.59375 L 235.378906 139.59375 L 235.378906 73.953125 L 242.761719 73.953125 Z M 264.453125 95.992188 C 264.453125 92.925781 263.9375 90.289062 262.902344 88.082031 C 261.90625 85.820312 260.570312 84.125 258.886719 82.996094 C 257.246094 81.808594 255.476562 81.21875 253.574219 81.21875 C 251.71875 81.21875 249.949219 81.808594 248.265625 82.996094 C 246.625 84.179688 245.285156 85.902344 244.25 88.160156 C 243.257812 90.421875 242.761719 93.085938 242.761719 96.15625 C 242.761719 99.222656 243.257812 101.914062 244.25 104.230469 C 245.285156 106.488281 246.625 108.210938 248.265625 109.394531 C 249.949219 110.582031 251.71875 111.171875 253.574219 111.171875 C 255.476562 111.171875 257.246094 110.582031 258.886719 109.394531 C 260.570312 108.160156 261.90625 106.382812 262.902344 104.066406 C 263.9375 101.753906 264.453125 99.0625 264.453125 95.992188 Z M 264.453125 95.992188 "/>
<path style=" stroke:none;fill-rule:nonzero;fill:rgb(0%,0%,0%);fill-opacity:1;" d="M 290.859375 119.003906 C 287.835938 119.003906 285.117188 118.359375 282.699219 117.066406 C 280.28125 115.722656 278.382812 113.835938 277 111.414062 C 275.621094 108.992188 274.929688 106.167969 274.929688 102.9375 L 282.828125 102.9375 C 283 105.359375 283.757812 107.351562 285.09375 108.910156 C 286.476562 110.472656 288.398438 111.253906 290.859375 111.253906 C 293.40625 111.253906 295.390625 110.5 296.816406 108.992188 C 298.242188 107.429688 298.953125 105.441406 298.953125 103.019531 C 298.953125 101.132812 298.5 99.601562 297.59375 98.414062 C 296.730469 97.230469 295.628906 96.316406 294.292969 95.671875 C 292.996094 95.023438 291.183594 94.324219 288.851562 93.570312 C 285.917969 92.601562 283.519531 91.632812 281.664062 90.664062 C 279.851562 89.640625 278.296875 88.082031 277 85.980469 C 275.707031 83.882812 275.058594 81.082031 275.058594 77.585938 C 275.058594 74.355469 275.707031 71.527344 277 69.105469 C 278.296875 66.683594 280.109375 64.828125 282.441406 63.535156 C 284.773438 62.242188 287.46875 61.597656 290.535156 61.597656 C 294.894531 61.597656 298.457031 62.96875 301.222656 65.714844 C 304.027344 68.40625 305.582031 72.121094 305.882812 76.859375 L 297.722656 76.859375 C 297.59375 74.8125 296.816406 73.0625 295.390625 71.609375 C 293.96875 70.15625 292.089844 69.429688 289.757812 69.429688 C 287.644531 69.429688 285.917969 70.101562 284.578125 71.449219 C 283.238281 72.792969 282.570312 74.730469 282.570312 77.261719 C 282.570312 78.984375 282.980469 80.410156 283.800781 81.539062 C 284.664062 82.617188 285.742188 83.480469 287.039062 84.125 C 288.332031 84.769531 290.101562 85.46875 292.347656 86.222656 C 295.328125 87.246094 297.746094 88.269531 299.601562 89.292969 C 301.5 90.316406 303.097656 91.902344 304.394531 94.054688 C 305.734375 96.15625 306.402344 98.980469 306.402344 102.535156 C 306.402344 105.386719 305.777344 108.078125 304.523438 110.609375 C 303.3125 113.136719 301.523438 115.183594 299.148438 116.746094 C 296.816406 118.25 294.054688 119.003906 290.859375 119.003906 Z M 290.859375 119.003906 "/>
<path style=" stroke:none;fill-rule:nonzero;fill:rgb(0%,0%,0%);fill-opacity:1;" d="M 330.332031 73.222656 C 333.050781 73.222656 335.46875 73.953125 337.582031 75.40625 C 339.742188 76.859375 341.425781 79.011719 342.636719 81.863281 C 343.886719 84.714844 344.511719 88.160156 344.511719 92.199219 L 344.511719 118.441406 L 337.195312 118.441406 L 337.195312 93.570312 C 337.195312 89.589844 336.398438 86.546875 334.800781 84.449219 C 333.203125 82.292969 331.019531 81.21875 328.257812 81.21875 C 325.496094 81.21875 323.292969 82.292969 321.652344 84.449219 C 320.054688 86.546875 319.257812 89.589844 319.257812 93.570312 L 319.257812 118.441406 L 311.875 118.441406 L 311.875 58.691406 L 319.257812 58.691406 L 319.257812 79.117188 C 320.507812 77.234375 322.085938 75.78125 323.984375 74.757812 C 325.925781 73.734375 328.042969 73.222656 330.332031 73.222656 Z M 330.332031 73.222656 "/>
<path style=" stroke:none;fill-rule:nonzero;fill:rgb(0%,0%,0%);fill-opacity:1;" d="M 366.167969 119.167969 C 362.800781 119.167969 359.757812 118.226562 357.039062 116.339844 C 354.320312 114.402344 352.179688 111.710938 350.628906 108.265625 C 349.074219 104.769531 348.296875 100.730469 348.296875 96.15625 C 348.296875 91.632812 349.09375 87.625 350.691406 84.125 C 352.289062 80.625 354.46875 77.933594 357.234375 76.050781 C 359.996094 74.167969 363.082031 73.222656 366.492188 73.222656 C 369.902344 73.222656 372.992188 74.167969 375.753906 76.050781 C 378.515625 77.933594 380.695312 80.625 382.292969 84.125 C 383.890625 87.625 384.691406 91.632812 384.691406 96.15625 C 384.691406 100.675781 383.871094 104.6875 382.230469 108.1875 C 380.589844 111.683594 378.34375 114.402344 375.496094 116.339844 C 372.6875 118.226562 369.578125 119.167969 366.167969 119.167969 Z M 366.167969 111.171875 C 368.070312 111.171875 369.839844 110.609375 371.480469 109.476562 C 373.164062 108.347656 374.523438 106.652344 375.558594 104.390625 C 376.59375 102.128906 377.113281 99.382812 377.113281 96.15625 C 377.113281 92.925781 376.617188 90.207031 375.625 88 C 374.632812 85.738281 373.3125 84.042969 371.671875 82.914062 C 370.03125 81.78125 368.261719 81.21875 366.363281 81.21875 C 364.464844 81.21875 362.695312 81.78125 361.054688 82.914062 C 359.457031 84.042969 358.183594 85.738281 357.234375 88 C 356.28125 90.207031 355.808594 92.925781 355.808594 96.15625 C 355.808594 100.945312 356.777344 104.660156 358.722656 107.296875 C 360.707031 109.878906 363.191406 111.171875 366.167969 111.171875 Z M 366.167969 111.171875 "/>
<path style=" stroke:none;fill-rule:nonzero;fill:rgb(0%,0%,0%);fill-opacity:1;" d="M 397.363281 81.460938 L 397.363281 106.085938 C 397.363281 107.753906 397.664062 108.964844 398.269531 109.71875 C 398.917969 110.417969 399.996094 110.769531 401.507812 110.769531 L 406.042969 110.769531 L 406.042969 118.441406 L 400.210938 118.441406 C 396.886719 118.441406 394.339844 117.472656 392.570312 115.53125 C 390.800781 113.59375 389.914062 110.445312 389.914062 106.085938 L 389.914062 81.460938 L 385.707031 81.460938 L 385.707031 73.953125 L 389.914062 73.953125 L 389.914062 62.890625 L 397.363281 62.890625 L 397.363281 73.953125 L 406.042969 73.953125 L 406.042969 81.460938 Z M 397.363281 81.460938 "/>
</g>
</svg>
