<?xml version="1.0" encoding="UTF-8"?>
<svg xmlns="http://www.w3.org/2000/svg" xmlns:xlink="http://www.w3.org/1999/xlink" width="446px" height="190px" viewBox="0 0 446 190" version="1.1">
<g id="surface1">
<path style="fill-rule:nonzero;fill:rgb(0%,0%,0%);fill-opacity:1;stroke-width:0.674298;stroke-linecap:butt;stroke-linejoin:miter;stroke:rgb(0%,0%,0%);stroke-opacity:1;stroke-miterlimit:4;" d="M 212.699517 111.762829 C 211.511351 110.743914 210.827932 109.673191 210.765397 108.550658 Z M 212.699517 111.762829 L 212.703983 111.769737 C 213.999352 112.826645 215.821801 113.334375 218.126664 113.334375 L 223.504677 113.334375 L 223.504677 111.997697 L 220.636999 111.997697 L 219.757042 111.838816 L 219.743641 111.835362 L 219.725774 111.831908 C 219.20316 111.790461 218.618011 111.434704 217.983727 110.647204 C 217.434312 109.842434 217.139504 108.681908 217.139504 107.127632 L 217.139504 81.254112 C 217.139504 78.494408 216.438218 76.211349 214.999912 74.429112 L 214.995446 74.422204 C 214.05742 73.306579 212.58338 72.481086 210.617993 71.921546 C 208.701741 71.299836 206.209273 70.995888 203.162924 70.995888 C 200.049573 70.995888 197.190828 72.076974 194.604558 74.214967 C 192.531968 75.87977 190.977526 77.665461 189.945698 79.572039 L 189.945698 71.327467 L 183.486722 71.327467 L 183.486722 113.334375 L 189.945698 113.334375 L 189.945698 83.651151 C 189.945698 81.585691 191.267867 79.188651 194.05961 76.453125 L 194.064077 76.449671 C 196.820085 73.693421 199.902169 72.332566 203.328195 72.332566 C 204.998774 72.332566 206.379011 72.601974 207.477841 73.12352 C 209.559364 74.246053 210.680528 76.857237 210.680528 81.171217 L 210.680528 107.148355 L 210.765397 108.550658 Z M 178.273981 58.917434 L 178.586656 59.038322 L 178.707259 58.730921 L 179.037801 57.901974 L 179.171805 57.570395 L 178.832329 57.456414 C 173.181842 55.574013 167.60729 54.631086 162.113141 54.631086 C 156.66366 54.631086 152.51848 55.909046 149.731204 58.523684 C 146.952862 61.072697 145.572625 64.416118 145.572625 68.522862 C 145.572625 73.703783 147.72115 77.724178 152.0048 80.542599 C 153.894251 81.820559 155.975774 82.984539 158.249369 84.037993 L 158.253836 84.041447 C 160.514031 85.036184 162.747425 85.999836 164.954018 86.935855 L 164.958485 86.939309 C 167.20528 87.868421 169.255535 88.883882 171.113719 89.975329 C 175.214231 92.403454 177.233219 95.743421 177.233219 100.019408 C 177.233219 103.93273 175.683243 106.882401 172.592226 108.909868 C 169.514609 110.909704 165.775907 111.914803 161.367188 111.914803 C 158.369973 111.914803 155.430826 111.479605 152.540814 110.609211 C 149.704404 109.680099 147.399541 108.512664 145.621759 107.110362 L 145.326951 106.875493 L 145.125946 107.196711 L 144.715001 107.856414 L 144.545263 108.129276 L 144.804337 108.312336 C 149.664203 111.721382 155.524629 113.41727 162.358814 113.41727 C 166.021581 113.41727 169.224268 112.999342 171.962409 112.160033 L 171.966876 112.160033 C 174.789886 111.255099 177.188551 109.562664 179.153938 107.089638 C 181.137192 104.599342 182.119885 101.601316 182.119885 98.116283 C 182.119885 94.610526 181.539203 91.716118 180.34657 89.446875 C 179.167338 87.143092 177.617363 85.336678 175.692177 84.034539 C 173.798259 82.753125 171.716736 81.613322 169.438674 80.615132 C 167.174012 79.620395 164.904884 78.736184 162.640222 77.959046 C 160.447029 77.137007 158.419107 76.263158 156.560923 75.334046 C 152.460412 73.175329 150.463758 70.163487 150.463758 66.291612 C 150.463758 63.082895 151.660857 60.596053 154.046122 58.789638 C 156.449254 56.976316 159.812745 56.047204 164.176797 56.047204 C 168.589984 56.047204 173.289045 57.000493 178.273981 58.917434 Z M 225.273525 76.79852 L 225.269058 76.801974 C 221.445488 80.684211 219.55157 86.124178 219.55157 93.07352 C 219.55157 100.019408 221.387419 105.224507 225.117188 108.616283 C 228.829088 111.987336 233.626419 113.6625 239.482378 113.6625 C 245.400872 113.6625 250.287539 111.731743 254.102176 107.859868 C 257.983814 103.977632 259.904533 98.537664 259.904533 91.584868 C 259.904533 84.642434 258.07315 79.437336 254.338915 76.045559 C 250.627014 72.671053 245.802883 70.995888 239.893323 70.995888 C 234.023963 70.995888 229.141764 72.930099 225.273525 76.79852 Z M 229.914518 77.817434 C 232.616925 74.145888 235.98935 72.332566 240.058594 72.332566 C 244.150172 72.332566 247.410927 73.886842 249.881061 76.998849 C 252.346728 80.107401 253.610829 84.949836 253.610829 91.584868 C 253.610829 98.15773 252.239525 103.255757 249.541585 106.927303 C 246.843645 110.543586 243.466753 112.329276 239.397509 112.329276 C 235.310398 112.329276 232.045176 110.775 229.575042 107.659539 C 227.109375 104.550987 225.849741 99.736184 225.849741 93.156414 C 225.849741 86.531743 227.216578 81.430263 229.914518 77.817434 Z M 316.226265 71.921546 L 315.980591 72.17023 L 316.235198 72.408553 C 317.02582 73.151151 317.450165 74.263322 317.450165 75.796875 C 317.450165 77.347697 317.128556 78.667105 316.503206 79.765461 L 316.494272 79.775822 L 316.489805 79.789638 L 304.844889 105.006908 L 292.476352 71.54852 L 292.39595 71.327467 L 285.892307 71.327467 L 286.057578 71.779934 L 289.068193 80.000329 L 277.566214 105.006908 L 265.197677 71.54852 L 265.117275 71.327467 L 258.609165 71.327467 L 258.778903 71.783388 L 274.153587 113.113322 L 274.238456 113.334375 L 275.515958 113.334375 L 275.605294 113.1375 L 289.814147 81.889638 L 301.432262 113.113322 L 301.517131 113.334375 L 302.794633 113.334375 L 302.883969 113.1375 L 317.928111 80.069408 L 317.932578 80.0625 C 318.607063 78.484046 318.951005 76.922862 318.951005 75.385855 C 318.951005 74.971382 318.892937 74.539638 318.776801 74.083717 C 318.709799 73.575987 318.464126 73.037171 318.071048 72.474178 C 317.90131 72.194408 317.740506 71.959539 317.588635 71.779934 C 317.441231 71.600329 317.280427 71.448355 317.110689 71.362007 L 316.891816 71.254934 L 316.722078 71.427632 Z M 316.226265 71.921546 " transform="matrix(0.87451,0,0,1.130952,0,0)"/>
<path style="fill-rule:nonzero;fill:rgb(0%,0%,0%);fill-opacity:1;stroke-width:0.674298;stroke-linecap:butt;stroke-linejoin:miter;stroke:rgb(0%,0%,0%);stroke-opacity:1;stroke-miterlimit:4;" d="M 331.75282 55.729441 C 333.302796 53.353125 335.822064 51.508717 339.315092 51.346382 L 338.582539 107.700987 L 338.582539 107.704441 C 338.582539 108.215625 338.743344 108.764803 339.033685 109.345066 C 340.391588 112.059868 343.63001 113.334375 348.512209 113.334375 L 351.411155 113.334375 L 351.411155 111.997697 L 348.53901 111.997697 L 347.659053 111.838816 L 347.645652 111.835362 L 347.627785 111.831908 C 347.105171 111.790461 346.520022 111.434704 345.890205 110.647204 C 345.34079 109.842434 345.045982 108.681908 345.045982 107.127632 L 345.045982 50.748849 L 344.710973 50.745395 L 339.659035 50.6625 L 339.324026 50.655592 L 339.324026 50.665954 C 333.664606 50.769572 329.483692 52.099342 326.852754 54.727796 C 324.168214 57.35625 322.868379 61.739309 322.868379 67.780263 L 322.868379 71.327467 L 321.130798 71.327467 L 321.130798 73.337664 L 322.868379 73.337664 L 322.868379 113.334375 L 329.327354 113.334375 L 329.327354 73.337664 L 335.857798 73.337664 L 335.857798 71.327467 L 329.327354 71.327467 L 329.327354 67.780263 C 329.327354 62.119243 330.158177 58.12648 331.75282 55.732895 Z M 375.773017 92.790296 C 374.64292 92.700493 373.405619 92.655592 372.056649 92.655592 C 370.560275 92.655592 368.925431 92.738487 367.152116 92.904276 C 363.592086 93.125329 360.639539 93.539803 358.312342 94.154605 C 355.989613 94.765954 354.252032 95.584539 353.144268 96.631086 C 352.081173 97.639638 351.393288 98.603289 351.147614 99.518586 C 350.919808 100.368257 350.808138 101.169572 350.808138 101.919079 C 350.808138 102.599507 350.86174 103.27648 350.977876 103.956908 C 351.455823 107.158717 352.706523 109.597204 354.756779 111.234375 C 356.807035 112.868092 359.612178 113.6625 363.132007 113.6625 C 366.151555 113.6625 368.782494 113.040789 371.006954 111.780099 C 372.900872 110.705921 374.491049 109.172368 375.773017 107.193257 L 375.773017 107.704441 C 375.773017 108.733717 376.496637 109.866612 377.769671 111.085855 C 379.252645 112.619408 381.937185 113.334375 385.69822 113.334375 L 388.597166 113.334375 L 388.597166 111.997697 L 385.725021 111.997697 L 384.849531 111.838816 L 384.813796 111.831908 C 384.291182 111.790461 383.7105 111.434704 383.076216 110.647204 C 382.526801 109.842434 382.231993 108.681908 382.231993 107.127632 L 382.231993 79.433882 C 382.231993 77.572204 381.472639 75.814145 379.998599 74.170066 C 379.029306 73.082072 377.568666 72.294572 375.656881 71.773026 C 373.745095 71.254934 371.35983 70.995888 368.501086 70.995888 C 363.382147 70.995888 358.348077 72.139145 353.398875 74.41875 L 353.063866 74.570724 L 353.247005 74.891941 L 353.577547 75.46875 L 353.747285 75.762336 L 354.037626 75.596546 C 355.265993 74.902303 357.217979 74.194243 359.911452 73.479276 L 359.915919 73.479276 C 362.649594 72.7125 365.016991 72.332566 367.013646 72.332566 C 369.028167 72.332566 370.631744 72.605428 371.837777 73.130428 L 371.851177 73.137336 C 373.088477 73.620888 373.901433 74.194243 374.343645 74.833224 C 374.821591 75.527467 375.196801 76.242434 375.460342 76.985033 L 375.469276 77.012664 C 375.786417 77.696546 375.86682 78.221546 375.781951 78.615296 C 375.723882 78.839803 375.688148 79.043586 375.688148 79.209375 C 375.688148 79.288816 375.697082 79.385526 375.728349 79.471875 C 375.74175 79.502961 375.75515 79.530592 375.773017 79.561678 Z M 357.432385 103.874013 L 357.432385 103.870559 C 357.378784 103.328289 357.351983 102.841283 357.351983 102.416447 C 357.351983 100.050493 357.9684 98.237171 359.161032 96.938487 C 359.741715 96.309868 360.684207 95.753783 362.019776 95.294408 C 363.355346 94.835033 365.057192 94.48273 367.134249 94.2375 C 368.612756 94.071711 370.086796 93.988816 371.560836 93.988816 C 372.990208 93.988816 374.39278 94.037171 375.773017 94.133882 L 375.773017 103.804934 C 375.612213 105.545724 374.424047 107.421217 372.087917 109.434868 C 369.832189 111.369079 367.290586 112.329276 364.454176 112.329276 C 362.332452 112.329276 360.715474 111.631579 359.563043 110.256908 C 358.401678 108.871875 357.678058 106.761513 357.432385 103.874013 Z M 395.623423 51.000987 L 395.623423 50.6625 L 389.164448 50.6625 L 389.164448 113.334375 L 395.623423 113.334375 L 395.623423 93.201316 L 397.486074 91.063322 L 412.534683 113.185855 L 412.632953 113.334375 L 419.234865 113.334375 L 418.877522 112.805921 L 401.251577 86.901316 L 414.553672 71.887007 L 415.049485 71.327467 L 413.320838 71.327467 L 413.222569 71.441447 L 395.623423 91.277467 Z M 451.02053 110.053125 L 450.890993 109.752632 L 450.591718 109.870066 C 446.334869 111.507237 441.475004 112.329276 435.998721 112.329276 C 432.193018 112.329276 429.124334 110.781908 426.761403 107.669901 C 424.456541 104.557895 423.272842 99.632566 423.272842 92.824836 C 423.272842 91.346546 423.344311 89.916612 423.487248 88.535033 L 453.030584 88.535033 L 453.030584 87.371053 C 453.030584 82.01398 451.467209 77.914145 448.286855 75.130263 C 445.133303 72.370559 441.251664 70.995888 436.659806 70.995888 C 430.951251 70.995888 426.234322 72.930099 422.526888 76.805428 C 418.814987 80.687664 416.979137 86.127632 416.979137 93.07352 C 416.979137 100.0125 418.725652 105.217599 422.290149 108.609375 C 425.836778 111.987336 430.415236 113.6625 435.998721 113.6625 C 441.600074 113.6625 446.62521 112.802467 451.083065 111.078947 L 451.404673 110.951151 L 451.27067 110.629934 Z M 443.748599 76.007566 C 445.62465 78.401151 446.638611 82.114145 446.732413 87.198355 L 423.656986 87.198355 C 424.335938 82.576974 425.845712 78.971053 428.146108 76.352961 C 430.57604 73.655428 433.300781 72.332566 436.329264 72.332566 C 439.362213 72.332566 441.82788 73.551809 443.748599 76.007566 Z M 443.748599 76.007566 " transform="matrix(0.87451,0,0,1.130952,0,0)"/>
<path style=" stroke:none;fill-rule:nonzero;fill:rgb(0%,0%,0%);fill-opacity:1;" d="M 402.558594 56.695312 L 402.558594 59.167969 L 400.386719 59.167969 L 400.386719 66.679688 L 398.324219 66.679688 L 398.324219 59.167969 L 396.152344 59.167969 L 396.152344 56.695312 Z M 402.558594 56.695312 "/>
<path style=" stroke:none;fill-rule:nonzero;fill:rgb(0%,0%,0%);fill-opacity:1;" d="M 411.019531 56.546875 L 411.019531 66.726562 L 408.957031 66.726562 L 408.957031 61.785156 L 407.449219 64.105469 L 406.832031 64.105469 L 405.320312 61.785156 L 405.320312 66.726562 L 403.261719 66.726562 L 403.261719 56.546875 L 403.988281 56.546875 L 407.140625 60.886719 L 410.292969 56.546875 Z M 411.019531 56.546875 "/>
<path style=" stroke:none;fill-rule:evenodd;fill:rgb(56.078431%,83.529412%,96.078431%);fill-opacity:1;" d="M 70.382812 111.53125 L 70.351562 143.632812 L 75.597656 143.640625 L 75.628906 111.390625 L 85.199219 141.167969 L 90.046875 138.5625 L 80.539062 108.988281 L 98.027344 131.664062 L 101.742188 126.875 L 84.179688 104.101562 L 107.152344 116.429688 L 109.164062 110.164062 L 86.1875 97.832031 L 111.0625 97.832031 L 111.0625 91.046875 L 86.246094 91.046875 L 109.183594 78.796875 L 107.179688 72.523438 L 84.34375 84.722656 L 101.902344 62.242188 L 98.214844 57.417969 L 80.433594 80.179688 L 90.015625 50.292969 L 85.167969 47.695312 L 75.664062 77.34375 L 75.695312 45.246094 L 70.445312 45.238281 L 70.414062 77.492188 L 60.84375 47.707031 L 55.996094 50.3125 L 65.503906 79.886719 L 48.015625 57.210938 L 44.300781 62.003906 L 61.863281 84.777344 L 38.890625 72.445312 L 36.878906 78.714844 L 59.855469 91.046875 L 34.980469 91.046875 L 34.980469 97.832031 L 59.796875 97.832031 L 36.859375 110.082031 L 38.863281 116.355469 L 61.699219 104.15625 L 44.140625 126.636719 L 47.832031 131.457031 L 65.609375 108.703125 L 56.027344 138.585938 L 60.875 141.183594 Z M 70.382812 111.53125 "/>
</g>
</svg>
