<?xml version="1.0" encoding="UTF-8"?>
<svg xmlns="http://www.w3.org/2000/svg" xmlns:xlink="http://www.w3.org/1999/xlink" width="446px" height="190px" viewBox="0 0 446 190" version="1.1">
<g id="surface1">
<path style=" stroke:none;fill-rule:nonzero;fill:rgb(0%,0%,0%);fill-opacity:1;" d="M 172.746094 50.316406 L 187.15625 50.316406 L 171.453125 135.359375 L 146.109375 135.359375 L 130.40625 50.316406 L 144.816406 50.316406 L 156.546875 120.351562 L 161.019531 120.351562 Z M 172.746094 50.316406 "/>
<path style=" stroke:none;fill-rule:nonzero;fill:rgb(0%,0%,0%);fill-opacity:1;" d="M 200.898438 111.222656 C 200.964844 115.058594 201.761719 117.851562 203.285156 119.601562 C 204.875 121.269531 207.128906 122.101562 210.042969 122.101562 C 216.203125 122.101562 221.703125 121.851562 226.542969 121.351562 L 229.324219 120.976562 L 229.523438 133.359375 C 221.902344 135.691406 215.011719 136.859375 208.851562 136.859375 C 201.363281 136.859375 195.929688 134.359375 192.550781 129.355469 C 189.171875 124.351562 187.480469 116.222656 187.480469 104.96875 C 187.480469 82.539062 194.804688 71.328125 209.445312 71.328125 C 223.890625 71.328125 231.113281 80.746094 231.113281 99.589844 L 230.121094 111.222656 Z M 217.992188 98.464844 C 217.992188 93.460938 217.363281 90.003906 216.105469 88.085938 C 214.847656 86.082031 212.628906 85.082031 209.445312 85.082031 C 206.332031 85.082031 204.113281 86.125 202.785156 88.210938 C 201.527344 90.210938 200.867188 93.628906 200.800781 98.464844 Z M 217.992188 98.464844 "/>
<path style=" stroke:none;fill-rule:nonzero;fill:rgb(0%,0%,0%);fill-opacity:1;" d="M 238.644531 135.359375 L 238.644531 72.828125 L 251.863281 72.828125 L 251.863281 79.457031 C 257.429688 75.285156 262.730469 72.578125 267.765625 71.328125 L 267.765625 88.210938 C 262.398438 89.628906 257.792969 91.085938 253.949219 92.585938 L 251.964844 93.460938 L 251.964844 135.359375 Z M 238.644531 135.359375 "/>
<path style=" stroke:none;fill-rule:nonzero;fill:rgb(0%,0%,0%);fill-opacity:1;" d="M 301.167969 87.085938 L 288.945312 87.085938 L 288.945312 112.722656 C 288.945312 115.222656 288.976562 117.015625 289.042969 118.101562 C 289.175781 119.101562 289.539062 119.976562 290.136719 120.726562 C 290.800781 121.476562 291.792969 121.851562 293.117188 121.851562 L 300.671875 121.601562 L 301.269531 134.984375 C 296.828125 136.234375 293.449219 136.859375 291.132812 136.859375 C 285.167969 136.859375 281.09375 135.191406 278.90625 131.859375 C 276.71875 128.4375 275.625 122.1875 275.625 113.097656 L 275.625 87.085938 L 269.761719 87.085938 L 269.761719 72.828125 L 275.625 72.828125 L 275.625 55.445312 L 288.945312 55.445312 L 288.945312 72.828125 L 301.167969 72.828125 Z M 301.167969 87.085938 "/>
<path style=" stroke:none;fill-rule:nonzero;fill:rgb(0%,0%,0%);fill-opacity:1;" d="M 307.855469 135.359375 L 307.855469 72.828125 L 321.171875 72.828125 L 321.171875 135.359375 Z M 307.855469 64.824219 L 307.855469 47.816406 L 321.171875 47.816406 L 321.171875 64.824219 Z M 307.855469 64.824219 "/>
<path style=" stroke:none;fill-rule:nonzero;fill:rgb(0%,0%,0%);fill-opacity:1;" d="M 376.515625 143.113281 C 376.515625 150.285156 374.328125 155.578125 369.957031 158.996094 C 365.582031 162.414062 359.652344 164.125 352.164062 164.125 C 344.742188 164.125 339.011719 162.871094 334.96875 160.371094 C 330.992188 157.871094 329.007812 153.328125 329.007812 146.742188 C 329.007812 141.488281 331.390625 136.527344 336.164062 131.859375 C 333.710938 129.773438 332.484375 126.605469 332.484375 122.351562 C 332.484375 120.683594 333.480469 117.933594 335.46875 114.097656 L 336.359375 112.347656 C 331.855469 108.261719 329.601562 102.257812 329.601562 94.339844 C 329.601562 86.335938 331.492188 80.539062 335.269531 76.953125 C 339.109375 73.371094 344.179688 71.578125 350.476562 71.578125 C 353.324219 71.578125 356.140625 71.992188 358.925781 72.828125 L 360.515625 73.203125 L 376.515625 72.578125 L 376.515625 85.957031 L 369.0625 85.207031 C 370.519531 88.042969 371.246094 90.878906 371.246094 93.714844 C 371.246094 102.050781 369.558594 107.804688 366.179688 110.972656 C 362.800781 114.140625 357.5 115.722656 350.277344 115.722656 C 348.753906 115.722656 347.394531 115.558594 346.199219 115.222656 C 345.539062 117.390625 345.207031 119.183594 345.207031 120.601562 C 345.207031 121.9375 345.769531 122.851562 346.898438 123.351562 C 348.023438 123.851562 350.675781 124.144531 354.847656 124.226562 C 363.195312 124.3125 368.894531 125.730469 371.945312 128.480469 C 374.992188 131.148438 376.515625 136.027344 376.515625 143.113281 Z M 342.125 144.988281 C 342.125 148.574219 345.605469 150.367188 352.5625 150.367188 C 359.585938 150.367188 363.097656 148.28125 363.097656 144.113281 C 363.097656 141.863281 362.503906 140.402344 361.308594 139.738281 C 360.117188 139.152344 357.597656 138.820312 353.753906 138.734375 L 344.808594 137.859375 C 343.019531 140.113281 342.125 142.488281 342.125 144.988281 Z M 342.921875 93.839844 C 342.921875 99.925781 345.4375 102.96875 350.476562 102.96875 C 355.578125 102.96875 358.128906 99.925781 358.128906 93.839844 C 358.128906 87.667969 355.578125 84.582031 350.476562 84.582031 C 345.4375 84.582031 342.921875 87.667969 342.921875 93.839844 Z M 342.921875 93.839844 "/>
<path style=" stroke:none;fill-rule:nonzero;fill:rgb(0%,0%,0%);fill-opacity:1;" d="M 385.28125 79.957031 C 388.792969 74.203125 394.65625 71.328125 402.871094 71.328125 C 411.089844 71.328125 416.953125 74.203125 420.464844 79.957031 C 423.976562 85.625 425.734375 93.628906 425.734375 103.96875 C 425.734375 125.894531 418.113281 136.859375 402.871094 136.859375 C 387.632812 136.859375 380.011719 125.894531 380.011719 103.96875 C 380.011719 93.628906 381.769531 85.625 385.28125 79.957031 Z M 395.519531 118.101562 C 396.910156 121.101562 399.359375 122.601562 402.871094 122.601562 C 406.386719 122.601562 408.804688 121.101562 410.128906 118.101562 C 411.519531 115.097656 412.214844 110.386719 412.214844 103.96875 C 412.214844 97.546875 411.519531 92.878906 410.128906 89.960938 C 408.804688 87.042969 406.386719 85.582031 402.871094 85.582031 C 399.359375 85.582031 396.910156 87.042969 395.519531 89.960938 C 394.191406 92.878906 393.53125 97.546875 393.53125 103.96875 C 393.53125 110.386719 394.191406 115.097656 395.519531 118.101562 Z M 395.519531 118.101562 "/>
<path style=" stroke:none;fill-rule:evenodd;fill:rgb(0%,56.470588%,94.509804%);fill-opacity:1;" d="M 79.886719 45.546875 C 73.9375 42.445312 67.496094 41.105469 61.070312 41.636719 C 54.640625 42.167969 48.394531 44.550781 42.816406 48.601562 L 37.1875 52.691406 L 30.6875 38.527344 L 36.316406 34.4375 C 43.621094 29.128906 51.800781 26.007812 60.21875 25.3125 C 68.636719 24.621094 77.070312 26.371094 84.863281 30.433594 C 92.65625 34.496094 99.605469 40.757812 105.167969 48.742188 C 110.730469 56.722656 114.757812 66.207031 116.941406 76.460938 C 119.125 86.710938 119.40625 97.460938 117.757812 107.871094 C 116.113281 118.285156 112.585938 128.078125 107.449219 136.5 C 102.3125 144.921875 95.707031 151.746094 88.140625 156.4375 C 80.574219 161.132812 70.816406 163.574219 63.816406 163.574219 C 56.816406 163.574219 52.726562 162.253906 47.359375 159.457031 C 42.144531 156.738281 37.402344 152.753906 33.410156 147.730469 C 29.417969 142.707031 26.25 136.738281 24.089844 130.175781 C 21.925781 123.609375 20.816406 116.574219 20.816406 109.46875 C 20.816406 102.363281 21.925781 95.328125 24.089844 88.765625 C 26.25 82.199219 29.417969 76.234375 33.410156 71.210938 C 37.402344 66.1875 42.144531 62.203125 47.359375 59.484375 C 52.578125 56.765625 58.167969 55.363281 63.816406 55.363281 C 69.460938 55.363281 75.054688 56.765625 80.269531 59.484375 C 85.488281 62.203125 90.226562 66.1875 94.222656 71.210938 C 98.214844 76.234375 101.382812 82.199219 103.542969 88.765625 C 104.472656 91.589844 105.207031 94.5 105.742188 97.464844 C 106.007812 91.835938 105.550781 86.171875 104.386719 80.691406 C 102.71875 72.863281 99.640625 65.621094 95.394531 59.527344 C 91.144531 53.429688 85.839844 48.648438 79.886719 45.546875 Z M 37.851562 128.382812 C 38.589844 110.796875 50.15625 96.824219 64.316406 96.824219 C 77.925781 96.824219 89.144531 109.738281 90.644531 126.359375 C 90.960938 125.5625 91.257812 124.746094 91.53125 123.914062 C 93.039062 119.335938 93.816406 114.425781 93.816406 109.46875 C 93.816406 104.511719 93.039062 99.605469 91.53125 95.023438 C 90.023438 90.445312 87.8125 86.285156 85.027344 82.777344 C 82.242188 79.273438 78.9375 76.492188 75.296875 74.59375 C 71.65625 72.699219 67.753906 71.722656 63.816406 71.722656 C 59.875 71.722656 55.976562 72.699219 52.335938 74.59375 C 48.695312 76.492188 45.386719 79.273438 42.601562 82.777344 C 39.816406 86.285156 37.605469 90.445312 36.097656 95.023438 C 34.589844 99.605469 33.816406 104.511719 33.816406 109.46875 C 33.816406 114.425781 34.589844 119.335938 36.097656 123.914062 C 36.605469 125.457031 37.191406 126.949219 37.851562 128.382812 Z M 77.816406 130.167969 C 77.816406 139.550781 71.769531 147.15625 64.316406 147.15625 C 56.859375 147.15625 50.816406 139.550781 50.816406 130.167969 C 50.816406 120.789062 56.859375 113.183594 64.316406 113.183594 C 71.769531 113.183594 77.816406 120.789062 77.816406 130.167969 Z M 77.816406 130.167969 "/>
</g>
</svg>
